<?xml version="1.0" encoding="UTF-8" standalone="no"?>
<!-- Created with Inkscape (http://www.inkscape.org/) -->

<svg
   xmlns:dc="http://purl.org/dc/elements/1.1/"
   xmlns:cc="http://creativecommons.org/ns#"
   xmlns:rdf="http://www.w3.org/1999/02/22-rdf-syntax-ns#"
   xmlns:svg="http://www.w3.org/2000/svg"
   xmlns="http://www.w3.org/2000/svg"
   xmlns:sodipodi="http://sodipodi.sourceforge.net/DTD/sodipodi-0.dtd"
   xmlns:inkscape="http://www.inkscape.org/namespaces/inkscape"
   width="669.03076"
   height="789.36725"
   id="svg2"
   version="1.1"
   inkscape:version="0.48.0 r9654"
   sodipodi:docname="Boeing 747-400 top.svg"
   style="display:inline">
  <defs
     id="defs4" />
  <sodipodi:namedview
     id="base"
     pagecolor="#00ffff"
     bordercolor="#666666"
     borderopacity="1.0"
     inkscape:pageopacity="0"
     inkscape:pageshadow="2"
     inkscape:zoom="0.5"
     inkscape:cx="476.82943"
     inkscape:cy="322.98493"
     inkscape:document-units="px"
     inkscape:current-layer="layer2"
     showgrid="false"
     fit-margin-top="10"
     fit-margin-left="10"
     fit-margin-right="10"
     fit-margin-bottom="10"
     inkscape:window-width="1280"
     inkscape:window-height="729"
     inkscape:window-x="-4"
     inkscape:window-y="22"
     inkscape:window-maximized="1"
     units="px" />
  <metadata
     id="metadata7">
    <rdf:RDF>
      <cc:Work
         rdf:about="">
        <dc:format>image/svg+xml</dc:format>
        <dc:type
           rdf:resource="http://purl.org/dc/dcmitype/StillImage" />
        <dc:title></dc:title>
      </cc:Work>
    </rdf:RDF>
  </metadata>
  <g
     inkscape:groupmode="layer"
     id="layer2"
     inkscape:label="Rysunek"
     style="display:inline"
     transform="translate(12.887323,11.414727)">
    <path
       style="fill:none;stroke:#000000;stroke-width:3.4000001;stroke-linecap:round;stroke-linejoin:bevel;stroke-miterlimit:4;stroke-opacity:1;stroke-dasharray:none;stroke-dashoffset:0;display:inline"
       d="M 321.98612,766.25254 C 338.29584,694.78972 353.17933,623.45656 354.903,553.31975 l 0,-326.75383 0,-134.228392 C 354.9237,70.149584 340.05816,0.28737868 321.62806,0.28527347 303.19797,0.28316827 288.33243,70.145374 288.35313,92.333318 l 0,134.228392 0,326.75383 c 1.72367,70.13681 16.60716,141.46997 32.91688,212.93279"
       id="path3935"
       inkscape:connector-curvature="0"
       sodipodi:nodetypes="ccccccccc" />
    <path
       style="fill:none;stroke:#000000;stroke-width:3.4000001;stroke-linecap:square;stroke-linejoin:bevel;stroke-miterlimit:4;stroke-opacity:1;stroke-dasharray:none;stroke-dashoffset:0"
       d="M 356,227.5 639.5625,479 c 2.12354,1.95446 4.91601,10.97151 4.88062,27.12041 -0.0294,13.39458 -0.0914,29.09791 -0.0921,40.67649"
       id="path3955"
       inkscape:connector-curvature="0"
       sodipodi:nodetypes="ccsc" />
    <path
       style="font-size:medium;font-style:normal;font-variant:normal;font-weight:normal;font-stretch:normal;text-indent:0;text-align:start;text-decoration:none;line-height:normal;letter-spacing:normal;word-spacing:normal;text-transform:none;direction:ltr;block-progression:tb;writing-mode:lr-tb;text-anchor:start;baseline-shift:baseline;color:#000000;fill:none;stroke:#000000;stroke-width:3;stroke-miterlimit:4;stroke-dasharray:none;marker:none;visibility:visible;display:inline;overflow:visible;enable-background:accumulate;font-family:Sans;-inkscape-font-specification:Sans"
       d="m 544.54374,355.17338 -1.28415,1.63342 0.19024,33.99923 2.04513,1.02845 4.2805,6.04969 0.23781,-3.8113 0,-37.26607 -1.28415,-1.63342 z m 1.28415,3.26683 1.61708,0 0,31.82135 -1.61708,0 z"
       id="rect3987"
       inkscape:connector-curvature="0"
       sodipodi:nodetypes="cccccccccccccc" />
    <path
       style="fill:none;stroke:#000000;stroke-width:3;stroke-linecap:square;stroke-linejoin:bevel;stroke-miterlimit:4;stroke-opacity:1;stroke-dasharray:none;stroke-dashoffset:0;display:inline"
       d="m 532.09354,375.11088 29,0"
       id="path3989"
       inkscape:connector-curvature="0" />
    <path
       style="fill:none;stroke:#000000;stroke-width:3;stroke-linecap:square;stroke-linejoin:bevel;stroke-miterlimit:4;stroke-opacity:1;stroke-dasharray:none;stroke-dashoffset:0;display:inline"
       d="m 533.41172,357.43346 25.35988,0"
       id="path3989-4"
       inkscape:connector-curvature="0" />
    <path
       style="fill:none;stroke:#000000;stroke-width:3;stroke-linecap:square;stroke-linejoin:bevel;stroke-miterlimit:4;stroke-opacity:1;stroke-dasharray:none;stroke-dashoffset:0"
       d="m 558.09354,404.48588 0,-20.77057"
       id="path3972"
       inkscape:connector-curvature="0" />
    <rect
       style="fill:none;stroke:#000000;stroke-width:3;stroke-linecap:square;stroke-linejoin:bevel;stroke-miterlimit:4;stroke-opacity:1;stroke-dasharray:none;stroke-dashoffset:0"
       id="rect3985"
       width="29"
       height="30.75"
       x="532.09357"
       y="351.11087"
       rx="3.3949878"
       ry="3.6762152" />
    <path
       style="font-size:medium;font-style:normal;font-variant:normal;font-weight:normal;font-stretch:normal;text-indent:0;text-align:start;text-decoration:none;line-height:normal;letter-spacing:normal;word-spacing:normal;text-transform:none;direction:ltr;block-progression:tb;writing-mode:lr-tb;text-anchor:start;baseline-shift:baseline;color:#000000;fill:none;stroke:#000000;stroke-width:3;stroke-miterlimit:4;stroke-dasharray:none;marker:none;visibility:visible;display:inline;overflow:visible;enable-background:accumulate;font-family:Sans;-inkscape-font-specification:Sans"
       d="m 448.02365,267.13859 -1.28415,1.63342 -0.16331,35.23667 1.16124,1.55878 5.51794,4.28192 0.23781,-3.8113 0,-37.26607 -1.28415,-1.63342 z m 1.28415,3.26683 1.61708,0 0,31.82135 -1.61708,0 z"
       id="rect3987-5"
       inkscape:connector-curvature="0"
       sodipodi:nodetypes="cccccccccccccc" />
    <path
       style="fill:none;stroke:#000000;stroke-width:3;stroke-linecap:square;stroke-linejoin:bevel;stroke-miterlimit:4;stroke-opacity:1;stroke-dasharray:none;stroke-dashoffset:0;display:inline"
       d="m 435.57345,287.07609 29,0"
       id="path3989-1"
       inkscape:connector-curvature="0" />
    <path
       style="fill:none;stroke:#000000;stroke-width:3;stroke-linecap:square;stroke-linejoin:bevel;stroke-miterlimit:4;stroke-opacity:1;stroke-dasharray:none;stroke-dashoffset:0;display:inline"
       d="m 436.89163,269.39867 25.35988,0"
       id="path3989-4-7"
       inkscape:connector-curvature="0" />
    <path
       style="font-size:medium;font-style:normal;font-variant:normal;font-weight:normal;font-stretch:normal;text-indent:0;text-align:start;text-decoration:none;line-height:normal;letter-spacing:normal;word-spacing:normal;text-transform:none;direction:ltr;block-progression:tb;writing-mode:lr-tb;text-anchor:start;baseline-shift:baseline;color:#000000;fill:none;stroke:#000000;stroke-width:3.4000001;stroke-miterlimit:4;stroke-dasharray:none;marker:none;visibility:visible;display:inline;overflow:visible;enable-background:accumulate;font-family:Sans;-inkscape-font-specification:Sans"
       d="m 458.2596,293.96875 0,1.49062 0,17.99591 0,1.49062 0.33333,3.52621 -0.0164,-5.01683 0,-17.99591 0,-1.49062 z"
       id="path3972-1"
       inkscape:connector-curvature="0"
       sodipodi:nodetypes="ccccccccc" />
    <rect
       style="fill:none;stroke:#000000;stroke-width:3;stroke-linecap:square;stroke-linejoin:bevel;stroke-miterlimit:4;stroke-opacity:1;stroke-dasharray:none;stroke-dashoffset:0"
       id="rect3985-1"
       width="29"
       height="30.75"
       x="435.57349"
       y="263.07608"
       rx="3.3949878"
       ry="3.6762152" />
    <path
       style="fill:none;stroke:#000000;stroke-width:3.4000001;stroke-linecap:square;stroke-linejoin:bevel;stroke-miterlimit:4;stroke-opacity:1;stroke-dasharray:none;stroke-dashoffset:0"
       d="M 354.9676,385.57655 464.56915,420.93189 644.17428,526.2908"
       id="path4190"
       inkscape:connector-curvature="0" />
    <path
       style="font-size:medium;font-style:normal;font-variant:normal;font-weight:normal;font-stretch:normal;text-indent:0;text-align:start;text-decoration:none;line-height:normal;letter-spacing:normal;word-spacing:normal;text-transform:none;direction:ltr;block-progression:tb;writing-mode:lr-tb;text-anchor:start;baseline-shift:baseline;color:#000000;fill:none;stroke:#000000;stroke-width:3;stroke-miterlimit:4;stroke-dasharray:none;marker:none;visibility:visible;display:inline;overflow:visible;enable-background:accumulate;font-family:Sans;-inkscape-font-specification:Sans"
       d="m 440.95833,294.06082 0,0.52109 0,6.29099 0,0.52109 0.33333,1.23269 -0.0164,-1.75378 0,-6.29099 0,-0.52109 z"
       id="path3972-1-7"
       inkscape:connector-curvature="0"
       sodipodi:nodetypes="ccccccccc" />
    <path
       style="fill:none;stroke:#000000;stroke-width:2;stroke-linecap:square;stroke-linejoin:round;stroke-miterlimit:4;stroke-opacity:1;stroke-dasharray:none;stroke-dashoffset:0"
       d="m 545.17933,467.95449 0,-11.31371 76.36753,46.66905 0,8.83884"
       id="path4247"
       inkscape:connector-curvature="0" />
    <path
       style="fill:none;stroke:#000000;stroke-width:2;stroke-linecap:square;stroke-linejoin:round;stroke-miterlimit:4;stroke-opacity:1;stroke-dasharray:none;stroke-dashoffset:0;display:inline"
       d="m 355.67471,364.7169 85.38314,28.8146 -0.17678,19.62222"
       id="path4247-6"
       inkscape:connector-curvature="0"
       sodipodi:nodetypes="ccc" />
    <path
       style="fill:none;stroke:#000000;stroke-width:2;stroke-linecap:square;stroke-linejoin:round;stroke-miterlimit:4;stroke-opacity:1;stroke-dasharray:none;stroke-dashoffset:0;display:inline"
       d="m 386.43386,373.73251 0,-11.31371 47.0226,14.84924 0,12.02083"
       id="path4247-1"
       inkscape:connector-curvature="0"
       sodipodi:nodetypes="cccc" />
    <path
       style="fill:none;stroke:#000000;stroke-width:1.99999988;stroke-linecap:square;stroke-linejoin:round;stroke-miterlimit:4;stroke-opacity:1;stroke-dasharray:none;stroke-dashoffset:0;display:inline"
       d="m 409.75,370.46632 0,11.56736"
       id="path4285"
       inkscape:connector-curvature="0" />
    <path
       style="fill:none;stroke:#000000;stroke-width:2;stroke-linecap:square;stroke-linejoin:round;stroke-miterlimit:4;stroke-opacity:1;stroke-dasharray:none;stroke-dashoffset:0"
       d="m 355,378 85.5,27"
       id="path4305"
       inkscape:connector-curvature="0" />
    <path
       style="fill:none;stroke:#000000;stroke-width:2;stroke-linecap:square;stroke-linejoin:round;stroke-miterlimit:4;stroke-opacity:1;stroke-dasharray:none;stroke-dashoffset:0"
       d="m 440.5,393 20,0.5 -0.5,25"
       id="path4307"
       inkscape:connector-curvature="0" />
    <path
       style="fill:none;stroke:#000000;stroke-width:2;stroke-linecap:square;stroke-linejoin:round;stroke-miterlimit:4;stroke-opacity:1;stroke-dasharray:none;stroke-dashoffset:0"
       d="M 460.5,413 545,463.5"
       id="path4309"
       inkscape:connector-curvature="0" />
    <path
       style="fill:none;stroke:#000000;stroke-width:2;stroke-linecap:square;stroke-linejoin:round;stroke-miterlimit:4;stroke-opacity:1;stroke-dasharray:none;stroke-dashoffset:0"
       d="M 354.5,316 643,512.5"
       id="path4311"
       inkscape:connector-curvature="0" />
    <path
       style="fill:none;stroke:#000000;stroke-width:2;stroke-linecap:square;stroke-linejoin:round;stroke-miterlimit:4;stroke-opacity:1;stroke-dasharray:none;stroke-dashoffset:0"
       d="M 544.5,445.5 545,457 460,400"
       id="path4313"
       inkscape:connector-curvature="0" />
    <path
       style="fill:none;stroke:#000000;stroke-width:2;stroke-linecap:square;stroke-linejoin:round;stroke-miterlimit:4;stroke-opacity:1;stroke-dasharray:none;stroke-dashoffset:0"
       d="m 473.5,398 -5.5,7"
       id="path4315"
       inkscape:connector-curvature="0" />
    <path
       style="fill:none;stroke:#000000;stroke-width:2;stroke-linecap:square;stroke-linejoin:round;stroke-miterlimit:4;stroke-opacity:1;stroke-dasharray:none;stroke-dashoffset:0"
       d="m 489.5,407.75 -5.25,8.375"
       id="path4317"
       inkscape:connector-curvature="0" />
    <path
       style="fill:none;stroke:#000000;stroke-width:2;stroke-linecap:square;stroke-linejoin:round;stroke-miterlimit:4;stroke-opacity:1;stroke-dasharray:none;stroke-dashoffset:0"
       d="M 506.375,419.5 501,427.625"
       id="path4319"
       inkscape:connector-curvature="0" />
    <path
       style="fill:none;stroke:#000000;stroke-width:2;stroke-linecap:square;stroke-linejoin:round;stroke-miterlimit:4;stroke-opacity:1;stroke-dasharray:none;stroke-dashoffset:0"
       d="m 523.75,431.25 -5.125,8"
       id="path4321"
       inkscape:connector-curvature="0" />
    <path
       style="fill:none;stroke:#000000;stroke-width:2;stroke-linecap:square;stroke-linejoin:round;stroke-miterlimit:4;stroke-opacity:1;stroke-dasharray:none;stroke-dashoffset:0"
       d="m 540.625,443 -5.5,7"
       id="path4323"
       inkscape:connector-curvature="0" />
    <path
       style="fill:none;stroke:#000000;stroke-width:2;stroke-linecap:square;stroke-linejoin:round;stroke-miterlimit:4;stroke-opacity:1;stroke-dasharray:none;stroke-dashoffset:0"
       d="m 386,395.25 0.5,14 c -4.00323,-4.33204 -5.02686,-9.85592 -5.75,-15.5"
       id="path4325"
       inkscape:connector-curvature="0"
       sodipodi:nodetypes="ccc" />
    <path
       style="fill:none;stroke:#000000;stroke-width:2;stroke-linecap:square;stroke-linejoin:round;stroke-miterlimit:4;stroke-opacity:1;stroke-dasharray:none;stroke-dashoffset:0;display:inline"
       d="M 417.96196,406.85484 418.375,419.5 c -3.30702,-3.91281 -4.15262,-8.90212 -4.75,-14"
       id="path4325-2"
       inkscape:connector-curvature="0"
       sodipodi:nodetypes="ccc" />
    <path
       style="fill:none;stroke:#000000;stroke-width:2;stroke-linecap:square;stroke-linejoin:round;stroke-miterlimit:4;stroke-opacity:1;stroke-dasharray:none;stroke-dashoffset:0;display:inline"
       d="M 481.46196,432.10484 481.875,444.75 c -3.30702,-3.91281 -4.46512,-10.96462 -5.0625,-16.0625"
       id="path4325-2-3"
       inkscape:connector-curvature="0"
       sodipodi:nodetypes="ccc" />
    <path
       style="fill:none;stroke:#000000;stroke-width:2;stroke-linecap:square;stroke-linejoin:round;stroke-miterlimit:4;stroke-opacity:1;stroke-dasharray:none;stroke-dashoffset:0;display:inline"
       d="M 522.83696,455.72984 523.25,468.375 c -3.30702,-3.91281 -4.24637,-9.23024 -4.84375,-14.32812"
       id="path4325-2-2"
       inkscape:connector-curvature="0"
       sodipodi:nodetypes="ccc" />
    <path
       style="fill:none;stroke:#000000;stroke-width:3;stroke-linecap:round;stroke-linejoin:round;stroke-miterlimit:4;stroke-opacity:1;stroke-dasharray:none;stroke-dashoffset:0"
       d="m 346.5,645 100,92 0.5,25 -116.5,-31"
       id="path4388"
       inkscape:connector-curvature="0" />
    <path
       style="fill:none;stroke:#000000;stroke-width:2.4000001;stroke-linecap:round;stroke-linejoin:round;stroke-miterlimit:4;stroke-opacity:1;stroke-dasharray:none;stroke-dashoffset:0"
       d="M 334.75,704.75 430,749 l 0,8"
       id="path4416"
       inkscape:connector-curvature="0" />
    <path
       style="fill:none;stroke:#000000;stroke-width:2.4000001;stroke-linecap:round;stroke-linejoin:round;stroke-miterlimit:4;stroke-opacity:1;stroke-dasharray:none;stroke-dashoffset:0"
       d="m 366.75,719.5 0,21.25"
       id="path4418"
       inkscape:connector-curvature="0" />
    <path
       style="fill:none;stroke:#000000;stroke-width:3.4000001;stroke-linecap:square;stroke-linejoin:bevel;stroke-miterlimit:4;stroke-opacity:1;stroke-dasharray:none;stroke-dashoffset:0"
       d="m 287.25613,227.49579 -283.5625,251.5 c -2.12354,1.95446 -4.91601,10.97151 -4.88062,27.12041 0.0294,13.39458 0.0914,29.09791 0.0921,40.67649"
       id="path3955-6"
       inkscape:connector-curvature="0"
       sodipodi:nodetypes="ccsc" />
    <path
       style="font-size:medium;font-style:normal;font-variant:normal;font-weight:normal;font-stretch:normal;text-indent:0;text-align:start;text-decoration:none;line-height:normal;letter-spacing:normal;word-spacing:normal;text-transform:none;direction:ltr;block-progression:tb;writing-mode:lr-tb;text-anchor:start;baseline-shift:baseline;color:#000000;fill:none;stroke:#000000;stroke-width:3;stroke-miterlimit:4;stroke-dasharray:none;marker:none;visibility:visible;display:inline;overflow:visible;enable-background:accumulate;font-family:Sans;-inkscape-font-specification:Sans"
       d="m 98.71239,355.16917 1.28415,1.63342 -0.19024,33.99923 -2.04513,1.02845 -4.2805,6.04969 -0.23781,-3.8113 0,-37.26607 1.28415,-1.63342 z m -1.28415,3.26683 -1.61708,0 0,31.82135 1.61708,0 z"
       id="rect3987-8"
       inkscape:connector-curvature="0"
       sodipodi:nodetypes="cccccccccccccc" />
    <path
       style="fill:none;stroke:#000000;stroke-width:3;stroke-linecap:square;stroke-linejoin:bevel;stroke-miterlimit:4;stroke-opacity:1;stroke-dasharray:none;stroke-dashoffset:0;display:inline"
       d="m 111.16259,375.10667 -29,0"
       id="path3989-5"
       inkscape:connector-curvature="0" />
    <path
       style="fill:none;stroke:#000000;stroke-width:3;stroke-linecap:square;stroke-linejoin:bevel;stroke-miterlimit:4;stroke-opacity:1;stroke-dasharray:none;stroke-dashoffset:0;display:inline"
       d="m 109.84441,357.42925 -25.35988,0"
       id="path3989-4-76"
       inkscape:connector-curvature="0" />
    <path
       style="fill:none;stroke:#000000;stroke-width:3;stroke-linecap:square;stroke-linejoin:bevel;stroke-miterlimit:4;stroke-opacity:1;stroke-dasharray:none;stroke-dashoffset:0"
       d="m 85.16259,404.48167 0,-20.77057"
       id="path3972-18"
       inkscape:connector-curvature="0" />
    <rect
       style="fill:none;stroke:#000000;stroke-width:3;stroke-linecap:square;stroke-linejoin:bevel;stroke-miterlimit:4;stroke-opacity:1;stroke-dasharray:none;stroke-dashoffset:0"
       id="rect3985-9"
       width="29"
       height="30.75"
       x="-111.16256"
       y="351.10666"
       rx="3.3949878"
       ry="3.6762152"
       transform="scale(-1,1)" />
    <path
       style="font-size:medium;font-style:normal;font-variant:normal;font-weight:normal;font-stretch:normal;text-indent:0;text-align:start;text-decoration:none;line-height:normal;letter-spacing:normal;word-spacing:normal;text-transform:none;direction:ltr;block-progression:tb;writing-mode:lr-tb;text-anchor:start;baseline-shift:baseline;color:#000000;fill:none;stroke:#000000;stroke-width:3;stroke-miterlimit:4;stroke-dasharray:none;marker:none;visibility:visible;display:inline;overflow:visible;enable-background:accumulate;font-family:Sans;-inkscape-font-specification:Sans"
       d="m 195.23248,267.13438 1.28415,1.63342 0.16331,35.23667 -1.16124,1.55878 -5.51794,4.28192 -0.23781,-3.8113 0,-37.26607 1.28415,-1.63342 z m -1.28415,3.26683 -1.61708,0 0,31.82135 1.61708,0 z"
       id="rect3987-5-2"
       inkscape:connector-curvature="0"
       sodipodi:nodetypes="cccccccccccccc" />
    <path
       style="fill:none;stroke:#000000;stroke-width:3;stroke-linecap:square;stroke-linejoin:bevel;stroke-miterlimit:4;stroke-opacity:1;stroke-dasharray:none;stroke-dashoffset:0;display:inline"
       d="m 207.68268,287.07188 -29,0"
       id="path3989-1-7"
       inkscape:connector-curvature="0" />
    <path
       style="fill:none;stroke:#000000;stroke-width:3;stroke-linecap:square;stroke-linejoin:bevel;stroke-miterlimit:4;stroke-opacity:1;stroke-dasharray:none;stroke-dashoffset:0;display:inline"
       d="m 206.3645,269.39446 -25.35988,0"
       id="path3989-4-7-9"
       inkscape:connector-curvature="0" />
    <path
       style="font-size:medium;font-style:normal;font-variant:normal;font-weight:normal;font-stretch:normal;text-indent:0;text-align:start;text-decoration:none;line-height:normal;letter-spacing:normal;word-spacing:normal;text-transform:none;direction:ltr;block-progression:tb;writing-mode:lr-tb;text-anchor:start;baseline-shift:baseline;color:#000000;fill:none;stroke:#000000;stroke-width:3.4000001;stroke-miterlimit:4;stroke-dasharray:none;marker:none;visibility:visible;display:inline;overflow:visible;enable-background:accumulate;font-family:Sans;-inkscape-font-specification:Sans"
       d="m 184.99653,293.96454 0,1.49062 0,17.99591 0,1.49062 -0.33333,3.52621 0.0164,-5.01683 0,-17.99591 0,-1.49062 z"
       id="path3972-1-5"
       inkscape:connector-curvature="0"
       sodipodi:nodetypes="ccccccccc" />
    <rect
       style="fill:none;stroke:#000000;stroke-width:3;stroke-linecap:square;stroke-linejoin:bevel;stroke-miterlimit:4;stroke-opacity:1;stroke-dasharray:none;stroke-dashoffset:0"
       id="rect3985-1-4"
       width="29"
       height="30.75"
       x="-207.68265"
       y="263.07187"
       rx="3.3949878"
       ry="3.6762152"
       transform="scale(-1,1)" />
    <path
       style="fill:none;stroke:#000000;stroke-width:3.4000001;stroke-linecap:square;stroke-linejoin:bevel;stroke-miterlimit:4;stroke-opacity:1;stroke-dasharray:none;stroke-dashoffset:0"
       d="M 288.28853,385.57234 178.68698,420.92768 -0.91815,526.28659"
       id="path4190-3"
       inkscape:connector-curvature="0" />
    <path
       style="font-size:medium;font-style:normal;font-variant:normal;font-weight:normal;font-stretch:normal;text-indent:0;text-align:start;text-decoration:none;line-height:normal;letter-spacing:normal;word-spacing:normal;text-transform:none;direction:ltr;block-progression:tb;writing-mode:lr-tb;text-anchor:start;baseline-shift:baseline;color:#000000;fill:none;stroke:#000000;stroke-width:3;stroke-miterlimit:4;stroke-dasharray:none;marker:none;visibility:visible;display:inline;overflow:visible;enable-background:accumulate;font-family:Sans;-inkscape-font-specification:Sans"
       d="m 202.2978,294.05661 0,0.52109 0,6.29099 0,0.52109 -0.33333,1.23269 0.0164,-1.75378 0,-6.29099 0,-0.52109 z"
       id="path3972-1-7-1"
       inkscape:connector-curvature="0"
       sodipodi:nodetypes="ccccccccc" />
    <path
       style="fill:none;stroke:#000000;stroke-width:2;stroke-linecap:square;stroke-linejoin:round;stroke-miterlimit:4;stroke-opacity:1;stroke-dasharray:none;stroke-dashoffset:0"
       d="m 98.0768,467.95028 0,-11.31371 -76.36753,46.66905 0,8.83884"
       id="path4247-2"
       inkscape:connector-curvature="0" />
    <path
       style="fill:none;stroke:#000000;stroke-width:2;stroke-linecap:square;stroke-linejoin:round;stroke-miterlimit:4;stroke-opacity:1;stroke-dasharray:none;stroke-dashoffset:0;display:inline"
       d="m 287.58142,364.71269 -85.38314,28.8146 0.17678,19.62222"
       id="path4247-6-3"
       inkscape:connector-curvature="0"
       sodipodi:nodetypes="ccc" />
    <path
       style="fill:none;stroke:#000000;stroke-width:2;stroke-linecap:square;stroke-linejoin:round;stroke-miterlimit:4;stroke-opacity:1;stroke-dasharray:none;stroke-dashoffset:0;display:inline"
       d="m 256.82227,373.7283 0,-11.31371 -47.0226,14.84924 0,12.02083"
       id="path4247-1-3"
       inkscape:connector-curvature="0"
       sodipodi:nodetypes="cccc" />
    <path
       style="fill:none;stroke:#000000;stroke-width:1.99999988;stroke-linecap:square;stroke-linejoin:round;stroke-miterlimit:4;stroke-opacity:1;stroke-dasharray:none;stroke-dashoffset:0;display:inline"
       d="m 233.50613,370.46211 0,11.56736"
       id="path4285-4"
       inkscape:connector-curvature="0" />
    <path
       style="fill:none;stroke:#000000;stroke-width:2;stroke-linecap:square;stroke-linejoin:round;stroke-miterlimit:4;stroke-opacity:1;stroke-dasharray:none;stroke-dashoffset:0"
       d="m 288.25613,377.99579 -85.5,27"
       id="path4305-1"
       inkscape:connector-curvature="0" />
    <path
       style="fill:none;stroke:#000000;stroke-width:2;stroke-linecap:square;stroke-linejoin:round;stroke-miterlimit:4;stroke-opacity:1;stroke-dasharray:none;stroke-dashoffset:0"
       d="m 202.75613,392.99579 -20,0.5 0.5,25"
       id="path4307-1"
       inkscape:connector-curvature="0" />
    <path
       style="fill:none;stroke:#000000;stroke-width:2;stroke-linecap:square;stroke-linejoin:round;stroke-miterlimit:4;stroke-opacity:1;stroke-dasharray:none;stroke-dashoffset:0"
       d="m 182.75613,412.99579 -84.5,50.5"
       id="path4309-3"
       inkscape:connector-curvature="0" />
    <path
       style="fill:none;stroke:#000000;stroke-width:2;stroke-linecap:square;stroke-linejoin:round;stroke-miterlimit:4;stroke-opacity:1;stroke-dasharray:none;stroke-dashoffset:0"
       d="m 288.75613,315.99579 -288.5,196.5"
       id="path4311-8"
       inkscape:connector-curvature="0" />
    <path
       style="fill:none;stroke:#000000;stroke-width:2;stroke-linecap:square;stroke-linejoin:round;stroke-miterlimit:4;stroke-opacity:1;stroke-dasharray:none;stroke-dashoffset:0"
       d="m 98.75613,445.49579 -0.5,11.5 85,-57"
       id="path4313-7"
       inkscape:connector-curvature="0" />
    <path
       style="fill:none;stroke:#000000;stroke-width:2;stroke-linecap:square;stroke-linejoin:round;stroke-miterlimit:4;stroke-opacity:1;stroke-dasharray:none;stroke-dashoffset:0"
       d="m 169.75613,397.99579 5.5,7"
       id="path4315-4"
       inkscape:connector-curvature="0" />
    <path
       style="fill:none;stroke:#000000;stroke-width:2;stroke-linecap:square;stroke-linejoin:round;stroke-miterlimit:4;stroke-opacity:1;stroke-dasharray:none;stroke-dashoffset:0"
       d="m 153.75613,407.74579 5.25,8.375"
       id="path4317-2"
       inkscape:connector-curvature="0" />
    <path
       style="fill:none;stroke:#000000;stroke-width:2;stroke-linecap:square;stroke-linejoin:round;stroke-miterlimit:4;stroke-opacity:1;stroke-dasharray:none;stroke-dashoffset:0"
       d="m 136.88113,419.49579 5.375,8.125"
       id="path4319-7"
       inkscape:connector-curvature="0" />
    <path
       style="fill:none;stroke:#000000;stroke-width:2;stroke-linecap:square;stroke-linejoin:round;stroke-miterlimit:4;stroke-opacity:1;stroke-dasharray:none;stroke-dashoffset:0"
       d="m 119.50613,431.24579 5.125,8"
       id="path4321-7"
       inkscape:connector-curvature="0" />
    <path
       style="fill:none;stroke:#000000;stroke-width:2;stroke-linecap:square;stroke-linejoin:round;stroke-miterlimit:4;stroke-opacity:1;stroke-dasharray:none;stroke-dashoffset:0"
       d="m 102.63113,442.99579 5.5,7"
       id="path4323-9"
       inkscape:connector-curvature="0" />
    <path
       style="fill:none;stroke:#000000;stroke-width:2;stroke-linecap:square;stroke-linejoin:round;stroke-miterlimit:4;stroke-opacity:1;stroke-dasharray:none;stroke-dashoffset:0"
       d="m 257.25613,395.24579 -0.5,14 c 4.00323,-4.33204 5.02686,-9.85592 5.75,-15.5"
       id="path4325-3"
       inkscape:connector-curvature="0"
       sodipodi:nodetypes="ccc" />
    <path
       style="fill:none;stroke:#000000;stroke-width:2;stroke-linecap:square;stroke-linejoin:round;stroke-miterlimit:4;stroke-opacity:1;stroke-dasharray:none;stroke-dashoffset:0;display:inline"
       d="m 225.29417,406.85063 -0.41304,12.64516 c 3.30702,-3.91281 4.15262,-8.90212 4.75,-14"
       id="path4325-2-1"
       inkscape:connector-curvature="0"
       sodipodi:nodetypes="ccc" />
    <path
       style="fill:none;stroke:#000000;stroke-width:2;stroke-linecap:square;stroke-linejoin:round;stroke-miterlimit:4;stroke-opacity:1;stroke-dasharray:none;stroke-dashoffset:0;display:inline"
       d="m 161.79417,432.10063 -0.41304,12.64516 c 3.30702,-3.91281 4.46512,-10.96462 5.0625,-16.0625"
       id="path4325-2-3-9"
       inkscape:connector-curvature="0"
       sodipodi:nodetypes="ccc" />
    <path
       style="fill:none;stroke:#000000;stroke-width:2;stroke-linecap:square;stroke-linejoin:round;stroke-miterlimit:4;stroke-opacity:1;stroke-dasharray:none;stroke-dashoffset:0;display:inline"
       d="m 120.41917,455.72563 -0.41304,12.64516 c 3.30702,-3.91281 4.24637,-9.23024 4.84375,-14.32812"
       id="path4325-2-2-8"
       inkscape:connector-curvature="0"
       sodipodi:nodetypes="ccc" />
    <path
       style="fill:none;stroke:#000000;stroke-width:3;stroke-linecap:round;stroke-linejoin:round;stroke-miterlimit:4;stroke-opacity:1;stroke-dasharray:none;stroke-dashoffset:0"
       d="m 296.75613,644.99579 -100,92 -0.5,25 116.5,-31"
       id="path4388-6"
       inkscape:connector-curvature="0" />
    <path
       style="fill:none;stroke:#000000;stroke-width:2.4000001;stroke-linecap:round;stroke-linejoin:round;stroke-miterlimit:4;stroke-opacity:1;stroke-dasharray:none;stroke-dashoffset:0"
       d="m 308.50613,704.74579 -95.25,44.25 0,8"
       id="path4416-5"
       inkscape:connector-curvature="0" />
    <path
       style="fill:none;stroke:#000000;stroke-width:2.4000001;stroke-linecap:round;stroke-linejoin:round;stroke-miterlimit:4;stroke-opacity:1;stroke-dasharray:none;stroke-dashoffset:0"
       d="m 276.50613,719.49579 0,21.25"
       id="path4418-0"
       inkscape:connector-curvature="0" />
    <rect
       style="fill:none;stroke:#000000;stroke-width:2.4000001;stroke-linecap:round;stroke-linejoin:round;stroke-miterlimit:4;stroke-opacity:1;stroke-dasharray:none;stroke-dashoffset:0;display:inline"
       id="rect4650"
       width="3.8125"
       height="12.625"
       x="288.20001"
       y="318.25293"
       rx="0"
       ry="0" />
    <rect
       style="fill:none;stroke:#000000;stroke-width:2.4000001;stroke-linecap:round;stroke-linejoin:round;stroke-miterlimit:4;stroke-opacity:1;stroke-dasharray:none;stroke-dashoffset:0;display:inline"
       id="rect4650-2"
       width="3.8125"
       height="12.625"
       x="288.20001"
       y="199.25294"
       rx="0"
       ry="0" />
    <rect
       style="fill:none;stroke:#000000;stroke-width:2.4000001;stroke-linecap:round;stroke-linejoin:round;stroke-miterlimit:4;stroke-opacity:1;stroke-dasharray:none;stroke-dashoffset:0;display:inline"
       id="rect4650-8"
       width="3.8125"
       height="12.625"
       x="288.20001"
       y="98.752937"
       rx="0"
       ry="0" />
    <rect
       style="fill:none;stroke:#000000;stroke-width:2.4000001;stroke-linecap:round;stroke-linejoin:round;stroke-miterlimit:4;stroke-opacity:1;stroke-dasharray:none;stroke-dashoffset:0;display:inline"
       id="rect4650-0"
       width="3.8125"
       height="12.625"
       x="288.20001"
       y="427.1875"
       rx="0"
       ry="0" />
    <rect
       style="fill:none;stroke:#000000;stroke-width:2.4000001;stroke-linecap:round;stroke-linejoin:round;stroke-miterlimit:4;stroke-opacity:1;stroke-dasharray:none;stroke-dashoffset:0;display:inline"
       id="rect4650-0-2"
       width="3.8125"
       height="12.625"
       x="241.59038"
       y="608.73273"
       rx="0"
       ry="0"
       transform="matrix(0.9966303,-0.08202469,0.08202469,0.9966303,0,0)" />
    <path
       style="font-size:medium;font-style:normal;font-variant:normal;font-weight:normal;font-stretch:normal;text-indent:0;text-align:start;text-decoration:none;line-height:normal;letter-spacing:normal;word-spacing:normal;text-transform:none;direction:ltr;block-progression:tb;writing-mode:lr-tb;text-anchor:start;baseline-shift:baseline;color:#000000;fill:#000000;fill-opacity:1;fill-rule:nonzero;stroke:none;stroke-width:24.29999924;marker:none;visibility:visible;display:inline;overflow:visible;enable-background:accumulate;font-family:Sans;-inkscape-font-specification:Sans"
       d="m 322.76301,52.697457 c -2.60314,-0.3486 -5.21372,1.0714 -7.625,4 -2.41128,2.92861 -4.7917,7.43745 -7.25,13.75 -0.18817,0.49087 0.48495,1.241293 0.97588,1.429453 0.49087,0.18817 1.68322,-0.264077 1.87139,-0.754897 1.04557,-1.66067 2.21057,-11.531916 11.39293,-11.828366 7.94219,0.0546 9.88198,11.530893 10.50184,12.569863 0.15792,0.51881 1.54319,0.569275 2.05235,0.382575 0.50916,-0.18669 1.45174,-0.925708 1.23686,-1.423628 -1.98311,-5.31725 -3.98644,-9.59674 -6.125,-12.6875 -2.13856,-3.09075 -4.42811,-5.08889 -7.03125,-5.4375 z"
       id="path4827"
       inkscape:connector-curvature="0"
       sodipodi:nodetypes="sscscccscss" />
    <path
       style="fill:none;stroke:#000000;stroke-width:3.0999999;stroke-linecap:round;stroke-linejoin:round;stroke-miterlimit:4;stroke-opacity:1;stroke-dasharray:none;stroke-dashoffset:0;display:inline"
       d="m 299.5875,126.07813 0,3.125"
       id="path4851-61"
       inkscape:connector-curvature="0" />
    <path
       style="fill:none;stroke:#000000;stroke-width:3.0999999;stroke-linecap:round;stroke-linejoin:round;stroke-miterlimit:4;stroke-opacity:1;stroke-dasharray:none;stroke-dashoffset:0;display:inline"
       d="m 299.5875,132.89063 0,3.125"
       id="path4851-8-8"
       inkscape:connector-curvature="0" />
    <path
       style="fill:none;stroke:#000000;stroke-width:3.0999999;stroke-linecap:round;stroke-linejoin:round;stroke-miterlimit:4;stroke-opacity:1;stroke-dasharray:none;stroke-dashoffset:0;display:inline"
       d="m 299.5875,139.60938 0,3.125"
       id="path4851-6-4"
       inkscape:connector-curvature="0" />
    <path
       style="fill:none;stroke:#000000;stroke-width:3.0999999;stroke-linecap:round;stroke-linejoin:round;stroke-miterlimit:4;stroke-opacity:1;stroke-dasharray:none;stroke-dashoffset:0;display:inline"
       d="m 299.5875,146.42188 0,3.125"
       id="path4851-8-5-96"
       inkscape:connector-curvature="0" />
    <path
       style="fill:none;stroke:#000000;stroke-width:3.0999999;stroke-linecap:round;stroke-linejoin:round;stroke-miterlimit:4;stroke-opacity:1;stroke-dasharray:none;stroke-dashoffset:0;display:inline"
       d="m 299.5875,153.34376 0,3.125"
       id="path4851-0-37"
       inkscape:connector-curvature="0" />
    <path
       style="fill:none;stroke:#000000;stroke-width:3.0999999;stroke-linecap:round;stroke-linejoin:round;stroke-miterlimit:4;stroke-opacity:1;stroke-dasharray:none;stroke-dashoffset:0;display:inline"
       d="m 299.5875,160.15626 0,3.125"
       id="path4851-8-9-8"
       inkscape:connector-curvature="0" />
    <path
       style="fill:none;stroke:#000000;stroke-width:3.0999999;stroke-linecap:round;stroke-linejoin:round;stroke-miterlimit:4;stroke-opacity:1;stroke-dasharray:none;stroke-dashoffset:0;display:inline"
       d="m 299.5875,166.87501 0,3.125"
       id="path4851-6-0-8"
       inkscape:connector-curvature="0" />
    <path
       style="fill:none;stroke:#000000;stroke-width:3.0999999;stroke-linecap:round;stroke-linejoin:round;stroke-miterlimit:4;stroke-opacity:1;stroke-dasharray:none;stroke-dashoffset:0;display:inline"
       d="m 299.5875,173.68751 0,3.125"
       id="path4851-8-5-0-2"
       inkscape:connector-curvature="0" />
    <path
       style="fill:none;stroke:#000000;stroke-width:3.0999999;stroke-linecap:round;stroke-linejoin:round;stroke-miterlimit:4;stroke-opacity:1;stroke-dasharray:none;stroke-dashoffset:0;display:inline"
       d="m 299.5875,180.64063 0,3.125"
       id="path4851-8-5-0-6-9"
       inkscape:connector-curvature="0" />
    <path
       style="fill:none;stroke:#000000;stroke-width:3.0999999;stroke-linecap:round;stroke-linejoin:round;stroke-miterlimit:4;stroke-opacity:1;stroke-dasharray:none;stroke-dashoffset:0;display:inline"
       d="m 343.9125,126.23439 0,3.125"
       id="path4851-1-1"
       inkscape:connector-curvature="0" />
    <path
       style="fill:none;stroke:#000000;stroke-width:3.0999999;stroke-linecap:round;stroke-linejoin:round;stroke-miterlimit:4;stroke-opacity:1;stroke-dasharray:none;stroke-dashoffset:0;display:inline"
       d="m 343.9125,133.04689 0,3.125"
       id="path4851-8-3-3"
       inkscape:connector-curvature="0" />
    <path
       style="fill:none;stroke:#000000;stroke-width:3.0999999;stroke-linecap:round;stroke-linejoin:round;stroke-miterlimit:4;stroke-opacity:1;stroke-dasharray:none;stroke-dashoffset:0;display:inline"
       d="m 343.9125,139.76564 0,3.125"
       id="path4851-6-8-5"
       inkscape:connector-curvature="0" />
    <path
       style="fill:none;stroke:#000000;stroke-width:3.0999999;stroke-linecap:round;stroke-linejoin:round;stroke-miterlimit:4;stroke-opacity:1;stroke-dasharray:none;stroke-dashoffset:0;display:inline"
       d="m 343.9125,146.57814 0,3.125"
       id="path4851-8-5-9-9"
       inkscape:connector-curvature="0" />
    <path
       style="fill:none;stroke:#000000;stroke-width:3.0999999;stroke-linecap:round;stroke-linejoin:round;stroke-miterlimit:4;stroke-opacity:1;stroke-dasharray:none;stroke-dashoffset:0;display:inline"
       d="m 343.9125,153.50002 0,3.125"
       id="path4851-0-3-8"
       inkscape:connector-curvature="0" />
    <path
       style="fill:none;stroke:#000000;stroke-width:3.0999999;stroke-linecap:round;stroke-linejoin:round;stroke-miterlimit:4;stroke-opacity:1;stroke-dasharray:none;stroke-dashoffset:0;display:inline"
       d="m 343.9125,160.31251 0,3.125"
       id="path4851-8-9-4-4"
       inkscape:connector-curvature="0" />
    <path
       style="fill:none;stroke:#000000;stroke-width:3.0999999;stroke-linecap:round;stroke-linejoin:round;stroke-miterlimit:4;stroke-opacity:1;stroke-dasharray:none;stroke-dashoffset:0;display:inline"
       d="m 343.9125,167.03126 0,3.125"
       id="path4851-6-0-4-0"
       inkscape:connector-curvature="0" />
    <path
       style="fill:none;stroke:#000000;stroke-width:3.0999999;stroke-linecap:round;stroke-linejoin:round;stroke-miterlimit:4;stroke-opacity:1;stroke-dasharray:none;stroke-dashoffset:0;display:inline"
       d="m 343.9125,173.84376 0,3.125"
       id="path4851-8-5-0-60-7"
       inkscape:connector-curvature="0" />
    <path
       style="fill:none;stroke:#000000;stroke-width:3.0999999;stroke-linecap:round;stroke-linejoin:round;stroke-miterlimit:4;stroke-opacity:1;stroke-dasharray:none;stroke-dashoffset:0;display:inline"
       d="m 343.9125,180.79688 0,3.125"
       id="path4851-8-5-0-6-6-6"
       inkscape:connector-curvature="0" />
    <path
       style="fill:#e6e6e6;fill-opacity:1;fill-rule:nonzero;stroke:none"
       d="m 351.81701,112.06631 c 0.004,-19.263136 0.0223,-34.984109 0.0411,-34.935495 0.0559,0.145131 0.54936,4.197865 0.74252,6.098796 0.5198,5.115488 0.4809,2.491288 0.51137,34.493549 l 0.028,29.36703 -0.66494,0 -0.66494,0 0.007,-35.02388 z"
       id="path5229"
       inkscape:connector-curvature="0" />
    <path
       style="fill:#e6e6e6;fill-opacity:1;fill-rule:nonzero;stroke:none"
       d="m 290.12821,130.63653 -0.0132,-18.00045 1.17114,-0.0308 c 1.07192,-0.0282 1.19502,-0.0487 1.45288,-0.24217 0.5302,-0.39785 0.51377,-0.16364 0.51377,-7.3237 0,-3.60956 0.007,-6.562839 0.0157,-6.562839 0.0562,0 0.60125,1.561049 0.73782,2.113279 0.4092,1.65464 0.48157,2.41763 0.48278,5.09037 9.5e-4,2.08703 -0.0292,2.74341 -0.16202,3.53289 -0.40438,2.40283 -1.02766,3.70385 -2.01594,4.20803 -1.50492,0.76776 -1.84733,4.90056 -2.0206,24.38825 -0.0508,5.71209 -0.10509,10.48506 -0.12068,10.6066 -0.0156,0.12153 -0.0343,-7.87924 -0.0416,-17.77949 z"
       id="path5231"
       inkscape:connector-curvature="0" />
    <path
       style="fill:#e6e6e6;fill-opacity:1;fill-rule:nonzero;stroke:none"
       d="m 290.11497,105.06153 0,-5.082327 0.30936,0 0.30936,0 0,5.082327 0,5.08233 -0.30936,0 -0.30936,0 0,-5.08233 z"
       id="path5233"
       inkscape:connector-curvature="0" />
    <path
       style="fill:#e6e6e6;fill-opacity:1;fill-rule:nonzero;stroke:none"
       d="m 292.41307,97.592717 c -0.0729,-0.04712 -0.62437,-0.08629 -1.22545,-0.08704 l -1.09286,-0.0014 0.0451,-4.529903 c 0.0352,-3.540271 0.0858,-5.01265 0.23143,-6.739611 0.32948,-3.907304 0.85601,-8.22579 1.5552,-12.755391 0.17026,-1.103005 0.30962,-2.055182 0.30969,-2.115949 8e-5,-0.07524 0.15825,-0.110485 0.49584,-0.110485 0.46954,0 0.49315,0.0105 0.44716,0.198873 -0.21697,0.888702 -1.34739,8.941542 -1.8208,12.97099 -0.60413,5.142039 -0.65317,5.761467 -0.6612,8.352699 -0.007,2.407826 -0.002,2.488956 0.20187,2.994671 0.25028,0.620815 0.67606,1.114637 1.31161,1.52119 0.25717,0.16451 0.46758,0.31949 0.46758,0.344401 0,0.07049 -0.11944,0.05108 -0.26516,-0.0431 z"
       id="path5235"
       inkscape:connector-curvature="0" />
    <path
       style="fill:#e6e6e6;fill-opacity:1;fill-rule:nonzero;stroke:none"
       d="m 277.73793,729.5869 0,-8.9884 13.87697,-6.45965 c 7.63234,-3.5528 14.09572,-6.47933 14.36308,-6.50338 0.35813,-0.0322 1.10883,2.865 2.85145,11.0048 1.30094,6.0767 2.33172,11.04855 2.29062,11.04855 -0.0863,0 -31.83295,8.43659 -32.7634,8.7068 -0.57774,0.16778 -0.61872,-0.41559 -0.61872,-8.80872 z"
       id="path5237"
       inkscape:connector-curvature="0" />
    <path
       style="fill:#e6e6e6;fill-opacity:1;fill-rule:nonzero;stroke:none"
       d="m 319.85768,738.61604 c -4.33586,-38.88372 -5.24993,-69.34845 -3.03656,-101.20466 0.81423,-11.7189 3.07487,-33.06094 3.55462,-33.55811 0.0782,-0.081 0.14215,31.06261 0.14215,69.20808 0,38.14546 -0.0532,69.35539 -0.1182,69.35539 -0.065,0 -0.30891,-1.71032 -0.54201,-3.8007 l 0,0 z"
       id="path5239"
       inkscape:connector-curvature="0" />
    <path
       style="fill:#e6e6e6;fill-opacity:1;fill-rule:nonzero;stroke:none"
       d="m 323.06883,672.58994 c -0.0111,-38.11305 0.0417,-69.13736 0.11734,-68.94291 0.22925,0.58914 1.85914,13.76808 2.44862,19.79899 3.3651,34.42817 2.84386,70.51094 -1.5986,110.66221 -0.38727,3.50018 -0.7588,6.68216 -0.82563,7.07107 -0.0668,0.38891 -0.13061,-30.4763 -0.14173,-68.58936 l 0,0 z"
       id="path5241"
       inkscape:connector-curvature="0" />
    <path
       style="fill:#e6e6e6;fill-opacity:1;fill-rule:nonzero;stroke:none"
       d="m 214.45187,752.73246 0,-2.74356 29.84891,-13.86334 c 16.41689,-7.62483 30.09941,-13.95946 30.40559,-14.07695 0.49723,-0.19081 0.55669,0.71306 0.55669,8.46244 0,7.95573 -0.0514,8.69163 -0.61872,8.86369 -0.3403,0.1032 -13.82394,3.69631 -29.96365,7.98469 -16.13971,4.28838 -29.54381,7.86895 -29.78687,7.95682 -0.32932,0.11905 -0.44195,-0.53943 -0.44195,-2.58379 z"
       id="path5243"
       inkscape:connector-curvature="0" />
    <path
       style="fill:#e6e6e6;fill-opacity:1;fill-rule:nonzero;stroke:none"
       d="m 198.12553,750.4785 c 0.0626,-5.11456 0.22174,-10.12336 0.35355,-11.13067 l 0.23967,-1.83148 47.55293,-43.7264 c 26.15411,-24.04952 47.96542,-44.11288 48.46957,-44.58525 l 0.91664,-0.85886 0.78925,4.8742 c 1.34375,8.29873 6.29481,35.5913 7.90731,43.58883 l 1.53273,7.60191 -46.8667,21.77207 -46.8667,21.77206 -0.0991,4.068 -0.0991,4.068 -6.44162,1.70343 c -3.5429,0.93688 -6.68028,1.76641 -6.97196,1.84339 -0.46361,0.12235 -0.516,-1.02996 -0.41644,-9.15923 z"
       id="path5245"
       inkscape:connector-curvature="0" />
    <path
       style="fill:#e6e6e6;fill-opacity:1;fill-rule:nonzero;stroke:none"
       d="m 440.72604,758.62852 c -2.04177,-0.56865 -4.94532,-1.36393 -6.45235,-1.76728 l -2.74003,-0.73338 0,-3.60601 c 0,-2.33357 -0.15595,-3.81477 -0.44195,-4.19762 -0.24306,-0.3254 -21.35418,-10.30347 -46.91358,-22.1735 -25.5594,-11.87003 -46.54133,-21.65156 -46.62651,-21.73674 -0.0852,-0.0852 0.897,-5.53035 2.18263,-12.10037 2.42416,-12.38832 5.64144,-30.15466 7.0477,-38.91862 l 0.81078,-5.0528 47.53893,43.71071 c 26.14641,24.0409 48.03749,44.2133 48.64685,44.82756 l 1.10793,1.11685 0.20892,10.87177 c 0.16269,8.46604 0.11311,10.86309 -0.22404,10.83255 -0.23813,-0.0216 -2.10351,-0.50447 -4.14528,-1.07312 z"
       id="path5247"
       inkscape:connector-curvature="0" />
    <path
       style="fill:#e6e6e6;fill-opacity:1;fill-rule:nonzero;stroke:none"
       d="m 348.69824,734.12064 c -8.90483,-2.38977 -16.27644,-4.43088 -16.38136,-4.5358 -0.10493,-0.10493 0.77711,-4.72806 1.96007,-10.27364 1.18296,-5.54557 2.15328,-10.292 2.15626,-10.54761 0.0188,-1.61225 0.49084,-1.44679 14.70303,5.15331 l 14.10616,6.55085 0.0944,9.02995 c 0.0519,4.96647 -0.0276,9.01601 -0.17677,8.99896 -0.14913,-0.017 -7.55691,-1.98625 -16.46174,-4.37602 z"
       id="path5249"
       inkscape:connector-curvature="0" />
    <path
       style="fill:#e6e6e6;fill-opacity:1;fill-rule:nonzero;stroke:none"
       d="m 398.47641,747.37765 -30.05203,-8.03812 -0.0946,-8.73916 c -0.052,-4.80654 0.0275,-8.67473 0.17677,-8.59599 0.14927,0.0787 13.75504,6.39834 30.23505,14.04355 l 29.96365,13.90038 0,2.77495 c 0,1.52623 -0.0398,2.7564 -0.0884,2.73373 -0.0486,-0.0227 -13.61181,-3.65838 -30.14043,-8.07934 z"
       id="path5251"
       inkscape:connector-curvature="0" />
    <path
       style="fill:#e6e6e6;fill-opacity:1;fill-rule:nonzero;stroke:none"
       d="m 328.81885,724.91584 c 0.8453,-8.6537 1.86375,-23.64094 2.42656,-35.70889 0.0544,-1.16672 0.14586,1.29931 0.20322,5.48008 0.11553,8.42066 0.47322,14.24847 0.8246,13.43503 0.62808,-1.45403 5.70172,-29.12555 9.62649,-52.50268 4.44691,-26.48716 6.67777,-43.01437 7.78983,-57.71052 0.85542,-11.30466 1.54577,-35.85794 1.80939,-64.35379 0.24086,-26.03598 0.26083,-26.60489 0.93393,-26.60489 0.67725,0 0.68507,0.44652 0.50925,29.07977 -0.17489,28.48406 -0.35842,33.99445 -1.68092,50.46974 -2.99562,37.31845 -10.05009,82.45546 -20.52797,131.34509 -1.85444,8.65279 -2.18994,9.89201 -1.91438,7.07106 l 0,0 z"
       id="path5253"
       inkscape:connector-curvature="0" />
    <path
       style="fill:#e6e6e6;fill-opacity:1;fill-rule:nonzero;stroke:none"
       d="m 313.16475,720.7343 c -1.64289,-7.73333 -1.65424,-7.80839 -1.13214,-7.48572 0.2313,0.14295 0.37111,-2.63106 0.40434,-8.02247 0.0479,-7.78178 0.0663,-7.99472 0.32865,-3.82157 0.42121,6.69921 1.01632,14.40228 1.59483,20.64337 0.28639,3.08954 0.47543,5.66262 0.42009,5.71795 -0.0553,0.0553 -0.78243,-3.10887 -1.61577,-7.03156 z"
       id="path5255"
       inkscape:connector-curvature="0" />
    <path
       style="fill:#e6e6e6;fill-opacity:1;fill-rule:nonzero;stroke:none"
       d="m 292.76189,594.89659 c -0.39582,-4.76459 -0.38346,-6.72135 0.0434,-6.87142 0.254,-0.0893 0.47476,0.74914 0.61872,2.34983 0.1231,1.36876 0.32392,3.60235 0.44627,4.96353 0.18775,2.0887 0.13754,2.47487 -0.32181,2.47487 -0.42644,0 -0.59674,-0.63151 -0.78659,-2.91681 z"
       id="path5257"
       inkscape:connector-curvature="0" />
  </g>
  <path
     style="fill:none;stroke:#000000;stroke-width:3.4000001;stroke-linecap:round;stroke-linejoin:round;stroke-miterlimit:4;stroke-opacity:1;stroke-dasharray:none;stroke-dashoffset:0;display:inline"
     d="m 334.62614,776.85173 c 9.50755,-61.087 11.75538,-121.863 0.0312,-181.625 l -0.0512,-0.06 c -11.30306,59.762 -9.85866,120.538 0.0312,181.625 z"
     id="path4805-4"
     inkscape:connector-curvature="0"
     sodipodi:nodetypes="ccccc" />
  <path
     style="fill:none;stroke:#000000;stroke-width:2;stroke-linecap:round;stroke-linejoin:round;stroke-miterlimit:4;stroke-opacity:1;stroke-dasharray:none;stroke-dashoffset:0"
     d="m 334.6209,596.39473 0,171.827"
     id="path4825"
     inkscape:connector-curvature="0" />
  <path
     style="fill:#b3b3b3;fill-opacity:1;fill-rule:nonzero;stroke:#000000;stroke-width:3.0999999;stroke-linecap:round;stroke-linejoin:round;stroke-miterlimit:4;stroke-opacity:1;stroke-dasharray:none;stroke-dashoffset:0"
     d=""
     id="path5061"
     inkscape:connector-curvature="0" />
  <path
     style="fill:#e6e6e6;fill-opacity:1;fill-rule:nonzero;stroke:none"
     d="m 14.925824,508.95573 c 0.35267,-6.028 1.38955,-12.351 2.30419,-14.052 0.91463,-1.7 63.23377,-57.647 138.486976,-124.326 75.2532,-66.679 138.25589,-122.516 140.00598,-124.081 l 3.18198,-2.846 0,41.684 0,41.684 -62.57895,42.61 c -34.41842,23.435 -98.14565,66.837 -141.616066,96.448 -43.47042,29.612 -79.34947,53.839 -79.73122,53.839 -0.38175,0 -0.40555,-4.932 -0.0529,-10.96 l 0,0 z"
     id="path5067"
     inkscape:connector-curvature="0" />
  <path
     style="fill:#e6e6e6;fill-opacity:1;fill-rule:nonzero;stroke:none"
     d="m 319.59018,696.52773 c -5.82611,-31.025 -12.18625,-72.797 -12.19465,-80.092 -0.003,-2.528 0.71207,-4.596 1.58885,-4.596 2.70016,0 0.65277,-13.929 -2.37256,-16.141 -2.44587,-1.788 -2.63447,-5.988 -3.21387,-71.564 -0.55933,-63.304 -0.40522,-69.781 1.68838,-70.953 3.10362,-1.736 3.27793,-15.006 0.21258,-16.182 -3.16003,-1.212 -3.17802,-91.75 -0.0185,-92.962 2.9726,-1.141 2.96273,-14.802 -0.0115,-15.944 -3.2,-1.228 -3.2,-101.618 0,-102.846 2.98308,-1.145 2.98308,-14.803 0,-15.948 -1.81879,-0.698 -2.12132,-6.72 -2.12132,-42.23 0,-35.511 0.30253,-41.533 2.12132,-42.231 3.05595,-1.173 2.94789,-14.442 -0.13163,-16.165 -1.99365,-1.116 -2.06867,-2.793 -0.65178,-14.565996 3.27985,-27.254 12.04162,-58.930007 19.79525,-71.565007 4.11594,-6.707 9.2781,-9.689 13.46744,-7.78 7.29625,3.324 17.13063,27.315007 23.59315,57.554007 l 3.32454,15.557 0,251.022996 c 0,263.985 0.0621,261.04 -6.45727,306.177 -2.48353,17.194 -11.9886,70.95 -13.25333,74.953 -0.24573,0.778 -0.47615,-14.814 -0.51205,-34.648 -0.0625,-34.565 -1.92431,-60.025 -6.08094,-83.157 -1.25091,-6.962 -2.10209,-8.815 -3.89075,-8.47 -2.57247,0.495 -3.0345,2.591 -6.79253,30.816 -1.93485,14.531 -2.55029,28.803 -2.57657,59.75 -0.019,22.363 -0.065,40.659 -0.10225,40.659 -0.0372,0 -2.47175,-12.802 -5.41,-28.449 l -1e-5,0 z m -5.12888,-530.166 c 0,-26.326 -0.31747,-31.112 -2.06359,-31.112 -1.74613,0 -2.0636,4.786 -2.0636,31.112 0,26.327 0.31747,31.113 2.0636,31.113 1.74612,0 2.06359,-4.786 2.06359,-31.113 z m 44.54773,-0.117 c 0,-25.98 -0.30174,-30.288 -2.12132,-30.288 -1.80901,0 -2.15583,4.268 -2.35572,28.991 -0.12892,15.946 0.0305,29.84 0.3543,30.877 0.32378,1.037 1.38385,1.62 2.35572,1.296 1.33988,-0.446 1.76702,-7.91 1.76702,-30.876 l 0,0 z M 325.77501,79.461734 c 0,-0.936 1.52871,-3.138 3.39713,-4.893 5.05727,-4.751 9.45265,-3.485 12.86633,3.707 2.69656,5.682 5.30944,7.498 6.95505,4.836 1.37281,-2.222 -6.86867,-16.396 -10.77933,-18.54 -3.50564,-1.921 -4.15032,-1.853 -7.73747,0.825 -4.40572,3.29 -10.98778,15.365 -9.59954,17.611 1.09964,1.779 4.89783,-0.971 4.89783,-3.546 z"
     id="path5069"
     inkscape:connector-curvature="0" />
  <path
     style="fill:#e6e6e6;fill-opacity:1;fill-rule:nonzero;stroke:none"
     d="m 513.86541,424.91173 c -77.39283,-52.81 -141.51956,-96.502 -142.50383,-97.095 -1.39219,-0.839 -1.70622,-10.311 -1.41421,-42.656 l 0.37537,-41.578 139.30003,123.415 c 76.61502,67.878 140.36559,125.346 141.66794,127.706 2.09369,3.794 5.17713,24.634 3.81462,25.782 -0.28911,0.243 -63.84708,-42.765 -141.23992,-95.574 z"
     id="path5071"
     inkscape:connector-curvature="0" />
  <path
     style="fill:#e6e6e6;fill-opacity:1;fill-rule:nonzero;stroke:none"
     d="m 449.16514,401.59973 c -1.07347,-0.434 -1.76776,-3.41 -1.76776,-7.579 l 0,-6.865 -22.4862,-7.159 c -12.36741,-3.938 -23.50434,-7.159 -24.74874,-7.159 -1.69001,0 -2.26254,1.406 -2.26254,5.556 l 0,5.557 -13.08147,-4.325 c -7.19481,-2.379 -13.57642,-4.77 -14.18134,-5.313 -0.60492,-0.543 -0.92312,-10.359 -0.70711,-21.813 l 0.39276,-20.825 50.20458,34.146 c 27.61252,18.78 50.80916,34.724 51.54808,35.431 1.40121,1.339 -19.65995,1.659 -22.91026,0.348 l 0,0 z"
     id="path5073"
     inkscape:connector-curvature="0" />
  <path
     style="fill:#e6e6e6;fill-opacity:1;fill-rule:nonzero;stroke:none"
     d="m 216.2599,410.19673 0.006,-4.375 40.82969,-13.75 c 22.45632,-7.562 41.13652,-13.824 41.51154,-13.915 0.55032,-0.133 0.6544,0.874 0.53953,5.218 l -0.14232,5.383 -40.75,12.89 c -22.4125,7.089 -41.03125,12.897 -41.375,12.907 -0.45413,0.01 -0.62342,-1.179 -0.61922,-4.358 z"
     id="path5075"
     inkscape:connector-curvature="0" />
  <path
     style="fill:#e6e6e6;fill-opacity:1;fill-rule:nonzero;stroke:none"
     d="m 216.25412,419.84673 0,-2.225 5.375,-1.729 c 13.12866,-4.225 76.99432,-24.321 77.2931,-24.321 0.18255,0 0.3319,0.888 0.3319,1.974 l 0,1.973 -6.125,1.985 c -30.60901,9.916 -76.24873,24.568 -76.5273,24.568 -0.19124,0 -0.3477,-1.001 -0.3477,-2.225 z"
     id="path5077"
     inkscape:connector-curvature="0" />
  <path
     style="fill:#e6e6e6;fill-opacity:1;fill-rule:nonzero;stroke:none"
     d="m 247.75412,387.30873 0,-5.186 8.875,-2.802 c 4.88125,-1.541 9.50152,-3.006 10.26727,-3.255 l 1.39227,-0.454 -0.14227,5.063 -0.14227,5.063 -10.125,3.379 -10.125,3.378 0,-5.186 z"
     id="path5079"
     inkscape:connector-curvature="0" />
  <path
     style="fill:#e6e6e6;fill-opacity:1;fill-rule:nonzero;stroke:none"
     d="m 223.75412,395.16473 0,-5.515 1.625,-0.508 c 0.89375,-0.28 5.58296,-1.76 10.42047,-3.289 4.8375,-1.529 8.94375,-2.781 9.125,-2.781 0.18124,0 0.32953,2.344 0.32953,5.209 l 0,5.208 -10.125,3.365 c -5.56875,1.851 -10.40625,3.469 -10.75,3.595 -0.47612,0.176 -0.625,-1.083 -0.625,-5.284 z"
     id="path5081"
     inkscape:connector-curvature="0" />
  <path
     style="fill:#e6e6e6;fill-opacity:1;fill-rule:nonzero;stroke:none"
     d="m 186.20024,411.80873 c -1.14745,-1.52 -1.99849,-2.834 -1.8912,-2.921 0.1073,-0.09 24.60758,-16.763 54.44508,-37.059 29.8375,-20.296 55.65858,-37.895 57.38017,-39.108 l 3.13017,-2.207 -0.13017,22.344 -0.13017,22.344 -13.67458,4.685 c -7.52102,2.577 -13.87727,4.685 -14.125,4.685 -0.24773,0 -0.45042,-2.574 -0.45042,-5.72 0,-3.425 -0.20889,-5.85 -0.52055,-6.042 -0.47132,-0.292 -46.03405,13.767 -48.10445,14.843 -0.76704,0.398 -0.875,1.279 -0.875,7.14 l 0,6.685 -2.3677,0.807 c -1.73141,0.59 -5.22633,0.893 -13.00498,1.127 -7.9579,0.239 -10.77714,0.488 -11.19249,0.989 -0.32762,0.395 -0.4684,1.869 -0.34344,3.596 l 0.21176,2.928 -2.81656,1.824 c -1.54911,1.003 -2.96003,1.823 -3.13538,1.823 -0.17535,0 -1.25764,-1.243 -2.40509,-2.763 z"
     id="path5083"
     inkscape:connector-curvature="0" />
  <path
     style="fill:#e6e6e6;fill-opacity:1;fill-rule:nonzero;stroke:none"
     d="m 197.28942,419.77973 c 0.0513,-4.81 -0.0482,-8.887 -0.22105,-9.06 -0.17283,-0.173 -0.31425,-1.289 -0.31425,-2.481 l 0,-2.167 5.125,0 c 2.81875,0 6.63347,-0.146 8.47715,-0.32 l 3.35215,-0.316 0.14785,8.836 0.14785,8.837 -3.25,0.971 c -1.7875,0.534 -5.56927,1.753 -8.40395,2.71 l -5.15395,1.739 0.0932,-8.746 z"
     id="path5085"
     inkscape:connector-curvature="0" />
  <path
     style="fill:#e6e6e6;fill-opacity:1;fill-rule:nonzero;stroke:none"
     d="m 112.25412,470.94573 c 0,-1.669 0.25548,-1.856 26.375,-19.363 14.50625,-9.723 32.7875,-21.991 40.625,-27.262 7.8375,-5.271 14.53125,-9.747 14.875,-9.946 0.48139,-0.279 0.625,0.722 0.625,4.355 l 0,4.716 -40.875,24.387 c -22.48125,13.413 -41.04375,24.48 -41.25,24.593 -0.20625,0.113 -0.375,-0.553 -0.375,-1.48 z"
     id="path5087"
     inkscape:connector-curvature="0" />
  <path
     style="fill:#e6e6e6;fill-opacity:1;fill-rule:nonzero;stroke:none"
     d="m 170.47535,422.81073 c -0.97149,-1.519 -1.62381,-2.992 -1.44961,-3.274 0.1742,-0.282 3.13958,-2.397 6.58974,-4.702 l 6.273,-4.189 2.24285,2.753 c 1.23357,1.514 2.04709,2.927 1.80782,3.139 -0.91699,0.814 -13.10283,9.034 -13.39243,9.034 -0.16776,0 -1.09987,-1.242 -2.07137,-2.761 z"
     id="path5089"
     inkscape:connector-curvature="0" />
  <path
     style="fill:#e6e6e6;fill-opacity:1;fill-rule:nonzero;stroke:none"
     d="m 153.58006,434.33773 c -1.00427,-1.513 -1.82594,-2.853 -1.82594,-2.979 0,-0.372 13.86989,-9.787 14.41809,-9.787 0.27583,0 1.28844,1.287 2.25026,2.86 l 1.74874,2.859 -6.08354,4.055 c -3.34595,2.23 -6.66813,4.435 -7.38261,4.898 l -1.29907,0.844 -1.82593,-2.75 z"
     id="path5091"
     inkscape:connector-curvature="0" />
  <path
     style="fill:#e6e6e6;fill-opacity:1;fill-rule:nonzero;stroke:none"
     d="m 136.06896,446.00773 c -0.84859,-1.379 -1.54113,-2.673 -1.53897,-2.875 0.004,-0.368 14.17361,-10.118 14.70433,-10.118 0.65839,0 3.94898,5.596 3.47654,5.912 -0.27804,0.186 -3.56919,2.42 -7.31368,4.963 -3.74449,2.544 -7.02802,4.625 -7.29675,4.625 -0.26872,0 -1.18288,-1.128 -2.03147,-2.507 z"
     id="path5095"
     inkscape:connector-curvature="0" />
  <path
     style="fill:#e6e6e6;fill-opacity:1;fill-rule:nonzero;stroke:none"
     d="m 119.34296,457.18273 c -0.99929,-1.282 -1.80665,-2.463 -1.79413,-2.625 0.0125,-0.161 3.27513,-2.49 7.25026,-5.177 l 7.22751,-4.884 1.74974,2.735 c 0.96235,1.505 1.74973,2.855 1.74973,3.001 0,0.367 -13.36867,9.282 -13.9199,9.282 -0.24548,0 -1.26392,-1.049 -2.26321,-2.332 z"
     id="path5097"
     inkscape:connector-curvature="0" />
  <path
     style="fill:#e6e6e6;fill-opacity:1;fill-rule:nonzero;stroke:none"
     d="m 112.64095,461.67573 c 0.20482,-3.191 0.43409,-3.991 1.35901,-4.74 1.10223,-0.892 1.13092,-0.878 3.06937,1.575 1.07621,1.361 1.95674,2.586 1.95674,2.721 0,0.313 -5.82866,4.283 -6.28831,4.283 -0.18876,0 -0.23232,-1.727 -0.0968,-3.839 z"
     id="path5099"
     inkscape:connector-curvature="0" />
  <path
     style="fill:#e6e6e6;fill-opacity:1;fill-rule:nonzero;stroke:none"
     d="m 13.526074,529.84173 0,-4.613 48.04388,-32.732 c 26.42413,-18.002 48.192876,-32.788 48.374996,-32.857 0.18212,-0.07 0.21862,1.616 0.0811,3.745 l -0.24992,3.871 -35.000004,21.377 c -19.25,11.758 -36.40625,22.27 -38.125,23.36 l -3.125,1.983 -0.006,4.395 -0.006,4.394 -9.9936,5.845 -9.9936,5.845 0,-4.613 z"
     id="path5101"
     inkscape:connector-curvature="0" />
  <path
     style="fill:#e6e6e6;fill-opacity:1;fill-rule:nonzero;stroke:none"
     d="m 36.044544,518.18173 0.0185,-2.917 34.82476,-21.25 c 19.15362,-11.687 35.682806,-21.769 36.731526,-22.403 l 1.90677,-1.153 -0.0195,3.903 -0.0195,3.903 -36.284096,21.25 c -19.95626,11.688 -36.48496,21.325 -36.73045,21.417 -0.24549,0.09 -0.43804,-1.146 -0.42788,-2.75 z"
     id="path5103"
     inkscape:connector-curvature="0" />
  <path
     style="fill:#e6e6e6;fill-opacity:1;fill-rule:nonzero;stroke:none"
     d="m 134.68865,470.80473 c 0.0549,-1.858 0.32015,-3.037 0.71242,-3.167 0.80769,-0.266 0.75326,1.519 -0.12585,4.127 l -0.674,2 0.0874,-2.96 z"
     id="path5105"
     inkscape:connector-curvature="0" />
  <path
     style="fill:#e6e6e6;fill-opacity:1;fill-rule:nonzero;stroke:none"
     d=""
     id="path5107"
     inkscape:connector-curvature="0" />
  <path
     style="fill:#e6e6e6;fill-opacity:1;fill-rule:nonzero;stroke:none"
     d="m 175.6495,447.74273 c 0.068,-2.573 0.17165,-3.956 0.30627,-4.087 0.1119,-0.109 0.58133,-0.415 1.04315,-0.68 0.61735,-0.354 0.83969,-0.415 0.83969,-0.23 0,1.253 -1.36493,6.877 -2.00654,8.268 -0.26951,0.584 -0.27966,0.402 -0.18257,-3.271 z"
     id="path5109"
     inkscape:connector-curvature="0" />
  <path
     style="fill:#e6e6e6;fill-opacity:1;fill-rule:nonzero;stroke:none"
     d="m 112.07768,476.24673 0,-0.607 41.23317,-24.629 c 22.67824,-13.546 41.3326,-24.705 41.45413,-24.797 0.17307,-0.133 0.22097,0.191 0.22097,1.492 l 0,1.661 -2.16551,0.703 c -2.14088,0.695 -2.60395,0.96 -40.70284,23.32 -21.19552,12.44 -38.8754,22.808 -39.28862,23.041 l -0.7513,0.422 0,-0.606 z"
     id="path5111"
     inkscape:connector-curvature="0" />
  <path
     style="fill:#e6e6e6;fill-opacity:1;fill-rule:nonzero;stroke:none"
     d="m 239.08306,424.42473 c 0.0534,-1.352 0.0971,-3.156 0.0971,-4.007 l 0,-1.549 0.89533,-0.298 c 0.49244,-0.163 0.94216,-0.25 0.99939,-0.193 0.33254,0.333 -0.84557,5.719 -1.64078,7.501 l -0.44809,1.005 0.0971,-2.459 z"
     id="path5113"
     inkscape:connector-curvature="0" />
  <path
     style="fill:#e6e6e6;fill-opacity:1;fill-rule:nonzero;stroke:none"
     d="m 411.00707,401.88873 -41.27735,-13.044 -0.0467,-5.592 -0.0467,-5.592 11.9791,4.037 c 59.79502,20.154 71.04168,23.958 71.17158,24.071 0.23173,0.201 -0.0681,9.184 -0.30616,9.173 -0.10805,0 -18.77127,-5.878 -41.47382,-13.053 z"
     id="path5115"
     inkscape:connector-curvature="0" />
  <path
     style="fill:#e6e6e6;fill-opacity:1;fill-rule:nonzero;stroke:none"
     d="m 411.04509,409.04273 c -22.68164,-7.323 -41.27879,-13.353 -41.32701,-13.401 -0.0482,-0.05 -0.0653,-1.079 -0.038,-2.289 l 0.0497,-2.202 41.49531,13.094 41.49532,13.093 0.003,2.519 c 0.002,1.904 -0.051,2.517 -0.21796,2.51 -0.12153,0 -18.77867,-6.001 -41.46031,-13.324 l 0,0 z"
     id="path5117"
     inkscape:connector-curvature="0" />
  <path
     style="fill:#e6e6e6;fill-opacity:1;fill-rule:nonzero;stroke:none"
     d="m 410.87449,389.26673 -10.47402,-3.556 0,-5.179 c 0,-2.848 0.0199,-5.179 0.0442,-5.178 0.0243,0 4.77739,1.494 10.5624,3.321 l 10.51822,3.321 0.0468,5.429 c 0.0257,2.986 -0.0141,5.422 -0.0884,5.413 -0.0743,0 -4.84845,-1.616 -10.60916,-3.571 z"
     id="path5119"
     inkscape:connector-curvature="0" />
  <path
     style="fill:#e6e6e6;fill-opacity:1;fill-rule:nonzero;stroke:none"
     d="m 434.42999,397.20373 -10.60661,-3.587 -0.0467,-5.419 c -0.0257,-2.981 0.0141,-5.42 0.0884,-5.42 0.11555,0 8.93049,2.764 18.6525,5.849 l 2.78423,0.884 0,5.649 c 0,3.107 -0.0597,5.645 -0.13258,5.64 -0.0729,0 -4.90555,-1.624 -10.73918,-3.596 l 0,0 z"
     id="path5121"
     inkscape:connector-curvature="0" />
  <path
     style="fill:#e6e6e6;fill-opacity:1;fill-rule:nonzero;stroke:none"
     d="m 463.1562,425.86773 c -4.52107,-1.463 -8.24551,-2.681 -8.27654,-2.706 -0.031,-0.02 10e-4,-4.002 0.0716,-8.838 l 0.12807,-8.794 4.08261,0.113 c 2.24543,0.06 6.1176,0.164 8.60481,0.228 l 4.5222,0.116 -0.0835,2.313 c -0.0721,1.996 -0.13465,2.383 -0.45634,2.818 l -0.3728,0.505 0.39836,0.323 0.39836,0.323 -0.17498,7.661 c -0.0962,4.213 -0.17606,7.88 -0.17739,8.147 -10e-4,0.279 -0.0966,0.479 -0.22338,0.469 -0.12154,0 -3.92003,-1.214 -8.44109,-2.678 z"
     id="path5123"
     inkscape:connector-curvature="0" />
  <path
     style="fill:#e6e6e6;fill-opacity:1;fill-rule:nonzero;stroke:none"
     d="m 477.3473,413.07673 -3.00579,-2.041 0.0886,-3.233 c 0.0857,-3.127 0.0762,-3.245 -0.28936,-3.611 -0.28915,-0.289 -0.59599,-0.378 -1.30603,-0.38 -0.51044,0 -5.29595,-0.12 -10.63447,-0.262 l -9.70639,-0.259 -2.53539,-0.839 -2.5354,-0.838 0.0166,-2.126 0.0166,-2.126 0.24549,1.237 c 0.45843,2.311 0.89313,2.963 2.17036,3.256 2.40197,0.55 9.49685,0.811 15.05182,0.554 5.12242,-0.237 7.24784,-0.544 7.24784,-1.046 -1e-5,-0.361 -23.12313,-16.258 -70.88743,-48.737 -14.37024,-9.771 -16.80644,-11.488 -16.37331,-11.537 0.38695,-0.04 0.87395,0.193 2.03291,0.99 0.83823,0.576 23.00242,15.669 49.25376,33.541 26.25134,17.871 48.02799,32.707 48.39255,32.97 l 0.66284,0.476 -2.30414,2.936 c -1.26727,1.615 -2.36978,2.977 -2.45002,3.026 -0.0802,0.05 -1.49849,-0.828 -3.15168,-1.951 l 0,0 z"
     id="path5125"
     inkscape:connector-curvature="0" />
  <path
     style="fill:#e6e6e6;fill-opacity:1;fill-rule:nonzero;stroke:none"
     d="m 489.58431,421.28273 c -3.88908,-2.623 -7.06273,-4.866 -7.05254,-4.984 0.0179,-0.208 4.45515,-5.944 4.59802,-5.944 0.1984,0 13.58617,9.246 13.55542,9.361 -0.0557,0.21 -3.61778,5.904 -3.83635,6.133 -0.14337,0.15 -2.02487,-1.033 -7.26455,-4.566 z"
     id="path5127"
     inkscape:connector-curvature="0" />
  <path
     style="fill:#e6e6e6;fill-opacity:1;fill-rule:nonzero;stroke:none"
     d="m 506.15618,432.40773 c -4.09878,-2.747 -7.45583,-5.057 -7.4601,-5.134 -0.009,-0.16 3.46417,-5.747 3.79709,-6.108 0.18068,-0.196 1.53724,0.658 7.6649,4.83 4.09494,2.788 7.44535,5.139 7.44535,5.226 0,0.142 -3.58047,5.734 -3.8716,6.047 -0.0678,0.07 -3.47686,-2.115 -7.57564,-4.861 z"
     id="path5129"
     inkscape:connector-curvature="0" />
  <path
     style="fill:#e6e6e6;fill-opacity:1;fill-rule:nonzero;stroke:none"
     d="m 517.60342,453.80873 c -38.23467,-22.45 -39.20803,-23.009 -41.36575,-23.74 l -2.2097,-0.748 0.0304,-1.455 c 0.0167,-0.801 0.0711,-1.496 0.12086,-1.546 0.0498,-0.05 18.70908,11.035 41.46514,24.632 l 41.37465,24.722 0.003,0.575 c 0.002,0.316 -0.0568,0.569 -0.12976,0.563 -0.0729,0 -17.7528,-10.357 -39.28862,-23.003 z"
     id="path5131"
     inkscape:connector-curvature="0" />
  <path
     style="fill:#e6e6e6;fill-opacity:1;fill-rule:nonzero;stroke:none"
     d="m 493.06517,450.70373 c -0.53286,-1.492 -0.86791,-2.63 -1.18118,-4.014 -0.39041,-1.723 -0.77206,-4.185 -0.63931,-4.124 0.0611,0.03 0.5234,0.28 1.02741,0.56 0.88798,0.493 0.9192,0.537 1.00742,1.414 0.1114,1.108 0.28551,7.181 0.20587,7.181 -0.0315,0 -0.22059,-0.458 -0.42021,-1.017 z"
     id="path5133"
     inkscape:connector-curvature="0" />
  <path
     style="fill:#e6e6e6;fill-opacity:1;fill-rule:nonzero;stroke:none"
     d="m 429.53189,425.77273 c -0.75104,-1.931 -1.91411,-7.162 -1.6508,-7.425 0.0405,-0.04 0.46942,0.06 0.95315,0.218 l 0.87951,0.292 0.0996,1.626 c 0.10402,1.698 0.26124,6.488 0.21294,6.488 -0.0153,0 -0.23781,-0.54 -0.49445,-1.199 z"
     id="path5135"
     inkscape:connector-curvature="0" />
  <path
     style="fill:#e6e6e6;fill-opacity:1;fill-rule:nonzero;stroke:none"
     d="m 397.3616,415.56273 c -0.35881,-0.774 -0.82578,-1.924 -1.0377,-2.556 -0.36315,-1.083 -1.26889,-5.144 -1.16949,-5.243 0.0253,-0.02 0.63926,0.142 1.36438,0.372 l 1.31842,0.417 0.13307,2.89 c 0.0732,1.589 0.11297,3.483 0.0884,4.209 l -0.0447,1.319 -0.65239,-1.408 z"
     id="path5137"
     inkscape:connector-curvature="0" />
  <path
     style="fill:#e6e6e6;fill-opacity:1;fill-rule:nonzero;stroke:none"
     d="m 529.09391,447.79373 c -1.02089,-0.69 -4.49878,-3.034 -7.72864,-5.209 l -5.87249,-3.954 2.02553,-3.045 c 1.11404,-1.675 2.10336,-3.026 2.19847,-3.003 0.12742,0.03 15.0751,10.142 15.34388,10.378 0.0881,0.08 -3.77002,5.994 -3.93847,6.04 -0.0947,0.03 -1.0074,-0.518 -2.02828,-1.207 z"
     id="path5139"
     inkscape:connector-curvature="0" />
  <path
     style="fill:#e6e6e6;fill-opacity:1;fill-rule:nonzero;stroke:none"
     d="m 541.73344,456.25273 c -3.2085,-2.154 -6.48521,-4.357 -7.28159,-4.895 l -1.44796,-0.98 1.92403,-2.997 c 1.05821,-1.648 1.991,-2.996 2.07287,-2.996 0.0819,0 3.47033,2.261 7.52992,5.025 4.73809,3.226 7.3495,5.108 7.2929,5.255 -0.0711,0.185 -3.75909,4.976 -4.14934,5.39 -0.059,0.06 -2.73233,-1.649 -5.94083,-3.802 z"
     id="path5141"
     inkscape:connector-curvature="0" />
  <path
     style="fill:#e6e6e6;fill-opacity:1;fill-rule:nonzero;stroke:none"
     d="m 552.9924,463.80873 -3.56646,-2.407 0.92366,-1.173 c 0.50802,-0.644 1.50441,-1.907 2.21421,-2.805 l 1.29055,-1.632 1.20961,0.804 1.20961,0.804 0.10637,1.713 c 0.19265,3.101 0.33783,7.104 0.25765,7.104 -0.0433,0 -1.68365,-1.084 -3.6452,-2.408 z"
     id="path5143"
     inkscape:connector-curvature="0" />
  <path
     style="fill:#e6e6e6;fill-opacity:1;fill-rule:nonzero;stroke:none"
     d="m 596.26905,499.94873 -37.03472,-21.725 -0.0422,-4.059 c -0.0232,-2.233 -0.008,-4.059 0.033,-4.059 0.10121,0 73.86472,45.069 74.03866,45.237 0.0752,0.07 0.11501,1.527 0.0884,3.231 l -0.0484,3.1 -37.03472,-21.725 z"
     id="path5145"
     inkscape:connector-curvature="0" />
  <path
     style="fill:#e6e6e6;fill-opacity:1;fill-rule:nonzero;stroke:none"
     d="m 645.49576,528.82573 -9.8939,-5.804 -0.0884,-4.441 c -0.0519,-2.609 -0.16133,-4.511 -0.26517,-4.61 -0.0972,-0.09 -17.20037,-10.565 -38.00699,-23.273 -20.80662,-12.707 -37.93925,-23.208 -38.07252,-23.334 -0.17951,-0.171 -0.28817,-1.245 -0.41926,-4.144 -0.0973,-2.153 -0.13249,-3.958 -0.0781,-4.012 0.0544,-0.06 21.86061,14.722 48.45833,32.838 l 48.3595,32.937 0,4.823 c 0,2.653 -0.0224,4.823 -0.0498,4.823 -0.0274,0 -4.50205,-2.612 -9.94369,-5.803 l 0,0 z"
     id="path5147"
     inkscape:connector-curvature="0" />
  <path
     style="fill:#e6e6e6;fill-opacity:1;fill-rule:nonzero;stroke:none"
     d="m 515.57049,448.33773 -41.36575,-24.721 -0.0449,-1.548 c -0.0247,-0.852 0.0151,-3.072 0.0884,-4.934 l 0.13327,-3.385 18.82672,12.623 c 10.35469,6.942 18.98581,12.761 19.18027,12.93 0.37915,0.33 1.82052,1.281 1.94139,1.281 0.0528,0 42.31372,28.287 42.65654,28.552 0.0276,0.02 0.0276,0.913 0,1.98 l -0.0502,1.942 -41.36575,-24.72 z"
     id="path5149"
     inkscape:connector-curvature="0" />
  <path
     style="fill:#e6e6e6;fill-opacity:1;fill-rule:nonzero;stroke:none"
     d="m 114.42705,384.10673 c 0.11725,-0.438 0.21535,-3.699 0.21801,-7.248 l 0.005,-6.452 3.88908,0 3.88909,0 0,7.247 0,7.248 -4.1071,0 c -4.08668,0 -4.10604,0 -3.89391,-0.795 z"
     id="path5151"
     inkscape:connector-curvature="0" />
  <path
     style="fill:#e6e6e6;fill-opacity:1;fill-rule:nonzero;stroke:none"
     d="m 114.29633,389.85173 0,-1.768 4.06587,0 4.06586,0 0,1.061 c 0,1.971 -0.97167,2.475 -4.77297,2.475 l -3.35876,0 0,-1.768 z"
     id="path5153"
     inkscape:connector-curvature="0" />
  <path
     style="fill:#e6e6e6;fill-opacity:1;fill-rule:nonzero;stroke:none"
     d="m 114.29633,398.00573 0,-3.204 3.60625,0 c 2.02089,0 3.45859,0.133 3.27037,0.302 -0.18474,0.166 -1.80755,1.608 -3.60625,3.204 l -3.27037,2.902 0,-3.204 z"
     id="path5155"
     inkscape:connector-curvature="0" />
  <path
     style="fill:#e6e6e6;fill-opacity:1;fill-rule:nonzero;stroke:none"
     d="m 99.800643,404.38073 0,-9.579 2.261797,0 2.2618,0 0.14571,7.336 c 0.16486,8.301 0.37037,7.585 -2.98993,10.41 l -1.679377,1.412 0,-9.579 z"
     id="path5157"
     inkscape:connector-curvature="0" />
  <path
     style="fill:#e6e6e6;fill-opacity:1;fill-rule:nonzero;stroke:none"
     d="m 96.618663,377.65373 0,-7.247 3.889087,0 3.88909,0 0,7.247 0,7.248 -3.88909,0 -3.889087,0 0,-7.248 z"
     id="path5159"
     inkscape:connector-curvature="0" />
  <path
     style="fill:#e6e6e6;fill-opacity:1;fill-rule:nonzero;stroke:none"
     d="m 97.562053,391.17673 c -0.33329,-0.244 -0.70271,-1.039 -0.82094,-1.768 l -0.21497,-1.325 3.935347,0 3.93535,0 0,1.768 0,1.768 -3.11441,0 c -1.937827,0 -3.343327,-0.168 -3.720377,-0.443 z"
     id="path5161"
     inkscape:connector-curvature="0" />
  <path
     style="fill:#e6e6e6;fill-opacity:1;fill-rule:nonzero;stroke:none"
     d="m 96.780383,366.25173 c 0.50508,-2.06 0.29214,-2.024 12.580347,-2.135 l 11.30351,-0.103 0.88191,0.882 c 0.48505,0.485 0.88191,1.208 0.88191,1.605 0,0.687 -0.2057,0.724 -4.05079,0.724 l -4.05079,0 -0.98735,-1.238 c -0.98285,-1.232 -1.00043,-1.237 -3.86219,-1.237 -2.87007,0 -2.87643,0 -3.8187,1.237 l -0.94383,1.238 -4.0862,0 -4.086197,0 0.23837,-0.973 z"
     id="path5163"
     inkscape:connector-curvature="0" />
  <path
     style="fill:#e6e6e6;fill-opacity:1;fill-rule:nonzero;stroke:none"
     d="m 193.13874,289.61973 0,-7.248 3.88909,0 3.88908,0 0,7.248 0,7.248 -3.88908,0 -3.88909,0 0,-7.248 z"
     id="path5165"
     inkscape:connector-curvature="0" />
  <path
     style="fill:#e6e6e6;fill-opacity:1;fill-rule:nonzero;stroke:none"
     d="m 211.16996,289.61973 0,-7.248 3.88909,0 3.88909,0 0,7.248 0,7.248 -3.88909,0 -3.88909,0 0,-7.248 z"
     id="path5167"
     inkscape:connector-curvature="0" />
  <path
     style="fill:#e6e6e6;fill-opacity:1;fill-rule:nonzero;stroke:none"
     d="m 211.16996,301.81673 0,-1.767 3.88909,0 3.88909,0 0,1.06 c 0,1.944 -0.98632,2.475 -4.5962,2.475 l -3.18198,0 0,-1.768 z"
     id="path5169"
     inkscape:connector-curvature="0" />
  <path
     style="fill:#e6e6e6;fill-opacity:1;fill-rule:nonzero;stroke:none"
     d="m 194.08212,303.14173 c -0.33328,-0.244 -0.70271,-1.039 -0.82094,-1.768 l -0.21496,-1.324 3.93535,0 3.93534,0 0,1.767 0,1.768 -3.1144,0 c -1.93783,0 -3.34334,-0.167 -3.72039,-0.443 z"
     id="path5171"
     inkscape:connector-curvature="0" />
  <path
     style="fill:#e6e6e6;fill-opacity:1;fill-rule:nonzero;stroke:none"
     d="m 193.30045,278.21773 c 0.50509,-2.061 0.29215,-2.024 12.58036,-2.136 l 11.30351,-0.102 0.88191,0.882 c 0.48505,0.485 0.88191,1.207 0.88191,1.605 0,0.686 -0.2057,0.723 -4.0508,0.723 l -4.05079,0 -0.98734,-1.238 c -0.98285,-1.231 -1.00043,-1.237 -3.8622,-1.237 -2.87007,0 -2.87642,0 -3.81869,1.237 l -0.94384,1.238 -4.0862,0 -4.0862,0 0.23837,-0.972 z"
     id="path5173"
     inkscape:connector-curvature="0" />
  <path
     style="fill:#e6e6e6;fill-opacity:1;fill-rule:nonzero;stroke:none"
     d="m 211.16996,311.07573 0,-4.309 1.06066,0 1.06066,0 0,3.293 c 0,3.197 -0.0308,3.322 -1.06066,4.308 l -1.06066,1.017 0,-4.309 z"
     id="path5175"
     inkscape:connector-curvature="0" />
  <path
     style="fill:#e6e6e6;fill-opacity:1;fill-rule:nonzero;stroke:none"
     d="m 201.05921,312.06973 c 0,-3.014 0.0542,-4.247 0.1205,-2.74 0.0663,1.507 0.0663,3.973 0,5.48 -0.0663,1.507 -0.1205,0.274 -0.1205,-2.74 z"
     id="path5177"
     inkscape:connector-curvature="0" />
  <path
     style="fill:#e6e6e6;fill-opacity:1;fill-rule:nonzero;stroke:none"
     d="m 199.61623,319.14373 0,-6.587 0.7,0 0.70001,0 0.032,1.204 c 0.0176,0.662 0.0492,1.9 0.0702,2.751 0.021,0.851 0.11912,2.82 0.21798,4.375 0.0989,1.556 0.17983,2.91 0.17994,3.01 2e-4,0.179 -0.006,0.186 -0.89474,0.974 -0.49221,0.437 -0.91979,0.809 -0.95017,0.828 -0.0441,0.03 -0.0552,-1.297 -0.0552,-6.555 z"
     id="path5179"
     inkscape:connector-curvature="0" />
  <path
     style="fill:#e6e6e6;fill-opacity:1;fill-rule:nonzero;stroke:none"
     d="m 199.61623,309.66173 0,-2.895 0.7576,0 0.75761,0 -0.0282,1.249 c -0.0155,0.686 -0.0412,1.989 -0.057,2.894 l -0.0288,1.647 -0.7006,0 -0.7006,0 0,-2.895 z"
     id="path5181"
     inkscape:connector-curvature="0" />
  <path
     style="fill:#cccccc;fill-opacity:1;fill-rule:nonzero;stroke:#000000"
     d="m 204.19665,317.82373 c -0.0156,-0.255 -0.0284,-0.958 -0.0284,-1.562 l 0,-1.098 1.8382,0 1.8382,0 -0.16618,0.232 c -0.0914,0.128 -0.20762,0.289 -0.25826,0.358 -0.0506,0.07 -0.79026,0.669 -1.6436,1.331 l -1.55152,1.204 -0.0284,-0.465 z"
     id="path5183"
     inkscape:connector-curvature="0" />
  <path
     style="fill:#cccccc;fill-opacity:1;fill-rule:nonzero;stroke:#000000;stroke-width:3.0999999;stroke-linecap:round;stroke-linejoin:round;stroke-miterlimit:4;stroke-opacity:1;stroke-dasharray:none;stroke-dashoffset:0"
     d="m 204.69856,316.47273 0,-0.779 0.97227,0 c 0.53475,0 0.97227,0 0.97227,0.02 0,0.01 -1.05913,0.853 -1.8893,1.497 -0.0437,0.03 -0.0552,-0.119 -0.0552,-0.736 z"
     id="path5187"
     inkscape:connector-curvature="0" />
  <path
     style="fill:#e6e6e6;fill-opacity:1;fill-rule:nonzero;stroke:none"
     d="m 421.36216,392.85673 c -0.0599,-0.126 -9.36328,-3.327 -9.75,-3.355 -0.10312,0 -0.21562,-0.04 -0.25,-0.08 -0.10121,-0.113 -9.54161,-3.293 -9.78125,-3.294 -0.12031,0 -0.21875,-0.05 -0.21875,-0.114 0,-0.06 -0.0844,-0.08 -0.1875,-0.04 -0.10312,0.04 -0.1875,0.02 -0.1875,-0.03 0,-0.06 -0.1125,-0.136 -0.25,-0.172 -0.24488,-0.06 -0.25,-0.17 -0.25,-5.202 0,-2.825 0.0183,-5.136 0.0406,-5.136 0.0223,0 0.45715,0.141 0.96626,0.315 0.50911,0.173 0.99346,0.288 1.07632,0.257 0.0829,-0.03 0.16836,-0.01 0.18999,0.05 0.0527,0.14 2.09377,0.776 2.22623,0.695 0.0573,-0.04 0.12311,-0.01 0.14617,0.05 0.0231,0.06 3.67005,1.251 8.10442,2.644 4.43438,1.394 8.1053,2.571 8.1576,2.616 0.0523,0.05 0.0804,2.527 0.0625,5.513 -0.0179,2.987 -0.0607,5.371 -0.0951,5.299 z"
     id="path5189"
     inkscape:connector-curvature="0" />
  <path
     style="fill:#e6e6e6;fill-opacity:1;fill-rule:nonzero;stroke:none"
     d="m 383.8944,380.19373 -14.28026,-4.83 -9.9e-4,-22.542 c -5.4e-4,-12.397 0.0444,-22.522 0.0999,-22.5 0.0555,0.02 3.60963,2.433 7.89811,5.355 5.64876,3.848 7.72199,5.323 7.52413,5.352 -0.33025,0.05 -0.3387,0.116 -0.0544,0.437 0.12032,0.136 0.15912,0.225 0.0862,0.198 -0.0729,-0.03 -3.37655,-2.259 -7.34146,-4.959 -3.96492,-2.7 -7.29435,-4.942 -7.39873,-4.982 -0.16241,-0.06 -0.19022,0.123 -0.19287,1.284 -0.002,0.746 -0.0848,5.295 -0.18463,10.107 -0.31875,15.364 -0.22551,26.694 0.24628,29.93 0.14176,0.972 0.22316,1.218 0.46297,1.401 0.43102,0.328 4.18539,1.804 8.22487,3.233 3.97425,1.406 18.57182,6.249 18.83483,6.249 0.13784,0 0.17047,-0.705 0.17804,-3.844 0.005,-2.114 0.0543,-4.097 0.10935,-4.406 0.0589,-0.332 0.10653,1.48 0.11574,4.406 0.009,2.733 0.002,4.962 -0.0156,4.955 -0.0172,0 -6.45736,-2.187 -14.31151,-4.844 l 0,0 z"
     id="path5191"
     inkscape:connector-curvature="0" />
  <path
     style="fill:#e6e6e6;fill-opacity:1;fill-rule:nonzero;stroke:none"
     d="m 364.73716,329.48873 0,-54.687 0.625,0 0.625,0 0,54.687 0,54.688 -0.625,0 -0.625,0 0,-54.688 z"
     id="path5193"
     inkscape:connector-curvature="0" />
  <path
     style="fill:#e6e6e6;fill-opacity:1;fill-rule:nonzero;stroke:none"
     d="m 411.08091,355.88873 -41.46875,-28.263 0,-26.412 c 0,-24.474 0.0152,-26.412 0.2065,-26.412 0.19021,0 0.19974,0.446 0.12082,5.656 -0.13646,9.008 -0.10736,33.894 0.0443,37.906 0.21174,5.601 0.55331,8.422 1.11212,9.188 0.1255,0.171 8.06956,5.644 17.65346,12.16 21.90427,14.893 28.45247,19.352 48.84819,33.263 l 16.42291,11.202 -0.73541,-0.01 -0.73541,-0.01 -41.46875,-28.263 z"
     id="path5195"
     inkscape:connector-curvature="0" />
  <path
     style="fill:#e6e6e6;fill-opacity:1;fill-rule:nonzero;stroke:none"
     d="m 449.98716,289.67673 0,-7.25 4.08103,0 4.08103,0 -0.0803,1.031 c -0.0442,0.567 -0.0806,3.83 -0.081,7.25 l -7.5e-4,6.219 -4,0 -4,0 0,-7.25 z"
     id="path5197"
     inkscape:connector-curvature="0" />
  <path
     style="fill:#e6e6e6;fill-opacity:1;fill-rule:nonzero;stroke:none"
     d="m 451.13944,303.46873 c -0.77208,-0.381 -1.15034,-1.247 -1.15158,-2.636 l -7e-4,-0.781 4,0 4,0 0,1.812 0,1.813 -3.21875,0 c -2.70864,0 -3.28376,-0.04 -3.62897,-0.205 z"
     id="path5199"
     inkscape:connector-curvature="0" />
  <path
     style="fill:#e6e6e6;fill-opacity:1;fill-rule:nonzero;stroke:none"
     d="m 467.98716,301.86373 0,-1.812 3.94957,0 3.94957,0 -0.0433,1.178 c -0.0479,1.302 -0.19753,1.633 -0.97954,2.165 -0.40224,0.274 -0.49934,0.282 -3.64476,0.282 l -3.23152,0 0,-1.813 z"
     id="path5201"
     inkscape:connector-curvature="0" />
  <path
     style="fill:#e6e6e6;fill-opacity:1;fill-rule:nonzero;stroke:none"
     d="m 467.98716,289.67673 0,-7.25 3.9375,0 3.9375,0 0,7.25 0,7.25 -3.9375,0 -3.9375,0 0,-7.25 z"
     id="path5203"
     inkscape:connector-curvature="0" />
  <path
     style="fill:#e6e6e6;fill-opacity:1;fill-rule:nonzero;stroke:none"
     d="m 450.01426,278.45273 c 0.0724,-1.012 0.36288,-1.681 0.89457,-2.06 l 0.39083,-0.279 11.57246,-0.03 11.57246,-0.03 0.41605,0.283 c 0.74808,0.509 0.93314,0.882 0.98298,1.979 l 0.045,0.992 -4.10699,0 -4.10699,0 -0.87044,-1.124 -0.87045,-1.124 -2.94205,0 -2.94206,0 -0.85972,1.12 -0.85972,1.121 -4.18833,0 -4.18832,0 0.0607,-0.848 z"
     id="path5205"
     inkscape:connector-curvature="0" />
  <path
     style="fill:#e6e6e6;fill-opacity:1;fill-rule:nonzero;stroke:none"
     d="m 456.77804,314.50873 -1.02163,-0.895 -0.01,-3.406 -0.01,-3.406 1.13568,0 1.13568,0 -0.0891,4.281 c -0.049,2.355 -0.096,4.29 -0.10442,4.301 -0.008,0.01 -0.47509,-0.383 -1.03698,-0.875 l 0,0 z"
     id="path5207"
     inkscape:connector-curvature="0" />
  <path
     style="fill:#e6e6e6;fill-opacity:1;fill-rule:nonzero;stroke:none"
     d="m 468.39939,324.79673 -0.84973,-0.754 0.0385,-0.715 c 0.0212,-0.392 0.11942,-1.98 0.21831,-3.526 0.10726,-1.678 0.17998,-4.868 0.18024,-7.907 l 4.4e-4,-5.093 0.6875,0 0.6875,0 0,9.375 c 0,5.156 -0.0254,9.375 -0.0565,9.375 -0.0311,0 -0.4389,-0.34 -0.90625,-0.755 l 0,0 z"
     id="path5209"
     inkscape:connector-curvature="0" />
  <path
     style="fill:#e6e6e6;fill-opacity:1;fill-rule:nonzero;stroke:none"
     d="m 566.75857,412.03873 -2.5411,-2.258 0.069,-0.896 c 0.038,-0.493 0.10494,-3.863 0.14886,-7.49 l 0.0799,-6.593 2.42349,0 2.42348,0 0,9.75 c 0,5.362 -0.0141,9.748 -0.0312,9.747 -0.0172,0 -1.17474,-1.019 -2.57234,-2.26 z"
     id="path5211"
     inkscape:connector-curvature="0" />
  <path
     style="fill:#e6e6e6;fill-opacity:1;fill-rule:nonzero;stroke:none"
     d="m 564.48716,389.86373 0,-1.812 3.9375,0 3.9375,0 0,1.067 c 0,1.247 -0.26425,1.918 -0.91129,2.312 -0.37131,0.226 -0.6457,0.245 -3.68246,0.245 l -3.28125,0 0,-1.813 z"
     id="path5213"
     inkscape:connector-curvature="0" />
  <path
     style="fill:#e6e6e6;fill-opacity:1;fill-rule:nonzero;stroke:none"
     d="m 564.48716,377.67673 0,-7.25 3.9375,0 3.9375,0 0,7.25 0,7.25 -3.9375,0 -3.9375,0 0,-7.25 z"
     id="path5215"
     inkscape:connector-curvature="0" />
  <path
     style="fill:#e6e6e6;fill-opacity:1;fill-rule:nonzero;stroke:none"
     d="m 546.53348,366.41673 c 0.0452,-0.487 0.16378,-1.042 0.26346,-1.235 0.28124,-0.544 0.8865,-0.982 1.47207,-1.066 0.29186,-0.04 5.54687,-0.06 11.67779,-0.04 11.03435,0.04 11.15063,0.04 11.49228,0.295 0.68778,0.513 0.85622,0.874 0.90453,1.938 l 0.045,0.992 -4.111,0 -4.11099,0 -0.86699,-1.125 -0.86698,-1.125 -2.90066,0 -2.90066,0 -0.88742,1.125 -0.88742,1.125 -4.20263,0 -4.20263,0 0.0822,-0.885 z"
     id="path5217"
     inkscape:connector-curvature="0" />
  <path
     style="fill:#e6e6e6;fill-opacity:1;fill-rule:nonzero;stroke:none"
     d="m 546.48716,377.67673 0,-7.25 4.0625,0 4.0625,0 10e-4,6.593 c 6e-4,3.627 0.0366,6.889 0.0799,7.25 l 0.0788,0.657 -4.14241,0 -4.14242,0 0,-7.25 z"
     id="path5219"
     inkscape:connector-curvature="0" />
  <path
     style="fill:#e6e6e6;fill-opacity:1;fill-rule:nonzero;stroke:none"
     d="m 547.48527,391.39473 c -0.6141,-0.417 -0.87169,-1.026 -0.95929,-2.267 l -0.0759,-1.076 4.14357,0 4.14356,0 0,1.812 0,1.813 -3.41901,0 c -3.33969,0 -3.42862,0 -3.83288,-0.282 z"
     id="path5221"
     inkscape:connector-curvature="0" />
  <path
     style="fill:#e6e6e6;fill-opacity:1;fill-rule:nonzero;stroke:none"
     d="m 602.36216,449.65073 c -25.49401,-22.963 -64.52575,-57.758 -104.71637,-93.349 -6.9854,-6.186 -7.253,-6.439 -6.84934,-6.476 0.39874,-0.04 3.5388,2.727 61.83664,54.423 33.77912,29.953 61.52751,54.566 61.6631,54.694 0.24208,0.229 0.23191,0.234 -0.5625,0.228 l -0.80903,0 -10.5625,-9.514 z"
     id="path5223"
     inkscape:connector-curvature="0" />
  <path
     style="fill:#000000;fill-opacity:1;fill-rule:nonzero;stroke:#000000"
     d="m 560.83091,403.99173 c -0.25781,-0.372 -0.46875,-0.707 -0.46875,-0.745 0,-0.04 0.225,-0.07 0.5,-0.07 l 0.5,0 0,0.75 c 0,0.412 -0.0141,0.747 -0.0312,0.745 -0.0172,0 -0.24218,-0.309 -0.5,-0.68 z"
     id="path5225"
     inkscape:connector-curvature="0" />
  <path
     style="fill:#000000;fill-opacity:1;fill-rule:nonzero;stroke:#000000;stroke-width:3.0999999;stroke-linecap:round;stroke-linejoin:round;stroke-miterlimit:4;stroke-opacity:1;stroke-dasharray:none;stroke-dashoffset:0"
     d="m 463.21616,317.00373 c -0.80218,-0.627 -1.5797,-1.295 -1.72782,-1.484 l -0.26932,-0.343 1.82157,0 1.82157,0 -0.0125,1.218 c -0.02,1.962 0.0595,1.932 -1.63354,0.609 l 0,0 z"
     id="path5227"
     inkscape:connector-curvature="0" />
</svg>
